<svg width="1290" height="615" xmlns="http://www.w3.org/2000/svg" xmlns:xlink="http://www.w3.org/1999/xlink" overflow="hidden"><defs><clipPath id="clip0"><rect x="-20" y="77" width="1290" height="615"/></clipPath><clipPath id="clip1"><rect x="11" y="339" width="96" height="96"/></clipPath><clipPath id="clip2"><rect x="11" y="339" width="96" height="96"/></clipPath><clipPath id="clip3"><rect x="11" y="339" width="96" height="96"/></clipPath><clipPath id="clip4"><rect x="1173" y="326" width="96" height="96"/></clipPath><clipPath id="clip5"><rect x="1173" y="326" width="96" height="96"/></clipPath><clipPath id="clip6"><rect x="1173" y="326" width="96" height="96"/></clipPath></defs><g clip-path="url(#clip0)" transform="translate(20 -77)"><rect x="118" y="78" width="1069" height="558" fill="#F7DAE3"/><rect x="193" y="135" width="158" height="225" fill="#E33092"/><text fill="#FFFFFF" font-family="Calibri,Calibri_MSFontService,sans-serif" font-weight="700" font-size="27" transform="translate(242.991 241)">HTTP<tspan font-family="DengXian,DengXian_MSFontService,sans-serif" x="-37.8333" y="32">请求拦截器</tspan></text><rect x="333" y="494" width="158" height="101" fill="#E33092"/><text fill="#FFFFFF" font-family="Calibri,Calibri_MSFontService,sans-serif" font-weight="700" font-size="27" transform="translate(362.123 521)">JWT<tspan font-family="DengXian,DengXian_MSFontService,sans-serif" x="46.1667" y="0">模块</tspan><tspan fill="#FFFF00" font-family="DengXian,DengXian_MSFontService,sans-serif" x="-9.33334" y="32">验证</tspan><tspan fill="#FFFF00" x="44" y="32">/</tspan><tspan fill="#FFFF00" font-family="DengXian,DengXian_MSFontService,sans-serif" x="55.5" y="32">生成</tspan><tspan fill="#FFFF00" x="17.1866" y="64">Token</tspan></text><g clip-path="url(#clip1)"><g clip-path="url(#clip2)"><g clip-path="url(#clip3)"><path d="M75 369C75 377.837 67.8366 385 59 385 50.1634 385 43 377.837 43 369 43 360.163 50.1634 353 59 353 67.8366 353 75 360.163 75 369Z" fill="#4EA6DC"/><path d="M91 421 91 405C91 402.6 89.8 400.2 87.8 398.6 83.4 395 77.8 392.6 72.2 391 68.2 389.8 63.8 389 59 389 54.6 389 50.2 389.8 45.8 391 40.2 392.6 34.6 395.4 30.2 398.6 28.2 400.2 27 402.6 27 405L27 421 91 421Z" fill="#4EA6DC"/></g></g></g><path d="M56.0029 338.801 56.1962 334.42 56.8009 329.85 59.1585 320.944 62.9547 312.239 68.02 303.862 74.2802 295.73 81.6027 288.022 89.8637 280.722 99.0605 273.952 108.995 267.711 119.632 262.042 130.896 257.142 142.654 252.947 154.741 249.576 167.233 247.09 177.273 246.004 177.918 251.97 168.01 253.041 168.273 253.001 156.023 255.438 156.244 255.386 144.369 258.698 144.57 258.634 133.008 262.759 133.197 262.684 122.134 267.497 122.348 267.393 111.911 272.956 112.096 272.849 102.346 278.974 102.528 278.849 93.5284 285.474 93.7365 285.306 85.674 292.431 85.8624 292.25 78.7374 299.75 78.9396 299.513 72.8771 307.388 73.0671 307.111 68.1921 315.173 68.3748 314.82 64.7498 323.133 64.9001 322.701 62.6501 331.201 62.724 330.827 62.1615 335.077 62.1845 334.816 61.997 339.066ZM174.007 240.205 192.562 247.996 175.197 258.166Z" fill="#E33092"/><rect x="583" y="135" width="139" height="460" fill="#E33092"/><text fill="#FFFFFF" font-family="DengXian,DengXian_MSFontService,sans-serif" font-weight="700" font-size="27" transform="translate(612.755 300)">控制器<tspan font-family="Calibri,Calibri_MSFontService,sans-serif" x="-15.6266" y="32">Controller</tspan><tspan fill="#FFFF00" font-size="24" x="-8" y="61">做最顶层</tspan><tspan fill="#FFFF00" font-size="24" x="-8" y="90">的逻辑处</tspan><tspan fill="#FFFF00" font-size="24" x="-8" y="119">理和过程</tspan><tspan fill="#FFFF00" font-size="24" x="16" y="148">调用</tspan></text><path d="M0.065202-2.99929 17.3698-2.62311 34.669-1.6166 51.5971 0.0195684 68.2088 2.28481 84.1939 5.05387 99.5591 8.32843 114.122 12.0481 127.758 16.2144 140.288 20.7074 151.647 25.5937 161.701 30.6846 166.244 33.4102 170.302 36.1802 174.075 38.9774 177.614 42.0916 180.128 46.0382 175.068 49.2619 172.782 45.6744 173.331 46.3146 170.206 43.5646 170.401 43.7224 166.776 41.0349 166.871 41.1028 162.934 38.4153 163.081 38.51 158.706 35.885 158.895 35.989 149.02 30.989 149.19 31.0683 138.002 26.2558 138.175 26.3239 125.8 21.8864 125.936 21.9316 112.436 17.8066 112.57 17.8442 98.1326 14.1567 98.2497 14.1841 82.9997 10.9341 83.1129 10.956 67.2379 8.20598 67.3447 8.22249 50.8447 5.97249 50.9614 5.98608 34.1489 4.36108 34.2632 4.36994 17.0757 3.36993 17.1848 3.37429-0.065202 2.99929ZM184.24 40.8764 184.437 61 168.22 49.0838Z" fill="#E33092" transform="matrix(1.83697e-16 1 1 -1.83697e-16 272 360)"/><text fill="#E33092" font-family="DengXian,DengXian_MSFontService,sans-serif" font-weight="700" font-size="27" transform="translate(136.182 391)">该请求需要<tspan x="26.6667" y="32">验证身份</tspan></text><path d="M351.01 245 572.81 245.749 572.79 251.749 350.99 251ZM569.831 239.739 587.8 248.8 569.77 257.739Z" fill="#E33092"/><text fill="#E33092" font-family="DengXian,DengXian_MSFontService,sans-serif" font-weight="700" font-size="27" transform="translate(394.626 202)">该请求无需<tspan x="13.3333" y="32">验证身份</tspan></text><path d="M3.40865e-06-3 77.4005-2.99991 77.4005 3.00009-3.40865e-06 3ZM74.4005-8.99992 92.4005 0.000104987 74.4005 9.00008Z" fill="#E33092" transform="matrix(1 0 0 -1 491 544)"/><rect x="479.5" y="473.5" width="105" height="172" stroke="#E33092" stroke-linejoin="round" stroke-miterlimit="10" fill="none"/><text fill="#E33092" font-family="DengXian,DengXian_MSFontService,sans-serif" font-weight="700" font-size="27" transform="translate(491.411 503)">请求中<tspan x="13.3333" y="32">添加</tspan><tspan x="0" y="64">验证后</tspan><tspan x="0" y="96">的身份</tspan><tspan x="13.3333" y="128">信息</tspan></text><path d="M0.171149 2.99511-4.20385 3.24511-3.86811 3.20687-8.24311 3.95687-7.91481 3.8814-12.2273 5.1314-11.9693 5.04373-16.2818 6.73123-16.0179 6.61298-20.3304 8.80048-20.111 8.67739-24.361 11.3024-24.1903 11.1887-28.3778 14.1887-28.2044 14.0547-32.3294 17.4922-32.2152 17.3919-36.2777 21.1419-36.1432 21.0097-40.1432 25.1972-39.9865 25.0197-47.674 34.4572-47.5241 34.2565-54.8366 44.944-54.7103 44.7428-61.5228 56.6178-61.4313 56.4457-67.7438 69.3207-67.6591 69.1315-73.2841 82.944-73.2251 82.7867-78.2251 97.3492-78.1726 97.1804-82.4226 112.43-82.3796 112.256-85.7546 127.943-85.7229 127.772-88.2229 143.897-88.201 143.721-89.7635 160.159-89.7517 159.977-90.3142 176.477-90.3156 176.239-89.9406 184.489-89.9621 184.242-88.8996 192.492-88.9449 192.231-87.1324 200.481-87.189 200.263-84.7515 208.388-84.825 208.173-81.7 216.298-81.7755 216.119-78.088 224.119-78.1852 223.927-73.8102 231.864-73.8924 231.724-69.0174 239.537-69.1226 239.379-63.6226 247.067-63.7123 246.948-57.7123 254.51-57.8203 254.382-51.3203 261.694-51.4043 261.604-44.4043 268.854-44.5064 268.753-37.0689 275.753-37.1815 275.652-29.244 282.402-29.3286 282.333-21.0161 288.895-21.1002 288.831-12.4127 295.206-12.573 295.096 5.92699 306.909 5.73679 306.797 25.5493 317.485 25.3578 317.39 46.2953 326.827 46.1459 326.765 56.9584 330.952 56.8525 330.914 67.915 334.726 67.804 334.69 78.9915 338.065 78.89 338.037 90.265 341.037 90.1676 341.013 101.668 343.638 101.539 343.611 113.164 345.736 113.067 345.72 124.817 347.47 124.691 347.454 136.503 348.704 136.349 348.692 145.046 349.16 144.723 355.151 135.949 354.679 123.996 353.414 112.134 351.647 100.396 349.502 88.7835 346.851 77.309 343.825 66.0152 340.418 54.8442 336.568 43.9035 332.331 22.7948 322.816 2.79105 312.025-15.8839 300.101-24.6925 293.637-33.0893 287.008-41.126 280.174-48.6709 273.073-55.7636 265.727-62.3605 258.305-68.459 250.619-74.0575 242.794-79.0256 234.832-83.4919 226.729-87.2652 218.543-90.4658 210.221-92.9684 201.879-94.8335 193.389-95.9288 184.885-96.3148 176.392-95.7452 159.682-94.1656 143.065-91.6387 126.767-88.2265 110.906-83.9286 95.4844-78.8726 80.7588-73.1768 66.7724-66.7757 53.7168-59.8555 41.654-52.4051 30.765-44.5637 21.1385-40.4167 16.7971-36.229 12.9315-31.9613 9.37513-27.6013 6.25151-23.1569 3.50646-18.603 1.19653-14.0287-0.593429-9.42316-1.92836-4.7151-2.73546-0.171149-2.99511ZM142.205 343.055 159.875 352.687 141.567 361.044Z" fill="#454551" transform="matrix(-6.12323e-17 -1 -1 6.12323e-17 411.673 594.855)"/><text font-family="DengXian,DengXian_MSFontService,sans-serif" font-weight="700" font-size="27" transform="translate(37.9072 651)">身份验证失败</text><rect x="799" y="135" width="118" height="460" fill="#E33092"/><text fill="#FFFFFF" font-family="DengXian,DengXian_MSFontService,sans-serif" font-weight="700" font-size="27" transform="translate(831.28 286)">服务<tspan font-family="Calibri,Calibri_MSFontService,sans-serif" x="-13.2" y="32">Service</tspan><tspan fill="#FFFF00" font-size="24" x="-19.8066" y="61">将</tspan><tspan fill="#FFFF00" font-family="Calibri,Calibri_MSFontService,sans-serif" font-size="24" x="4.19336" y="61">DAO</tspan><tspan fill="#FFFF00" font-size="24" x="49.14" y="61">提</tspan><tspan fill="#FFFF00" font-size="24" x="-21.3333" y="90">供的方法</tspan><tspan fill="#FFFF00" font-size="24" x="-21.3333" y="119">组装为控</tspan><tspan fill="#FFFF00" font-size="24" x="-21.3333" y="148">制器所需</tspan><tspan fill="#FFFF00" font-size="24" x="-9.33331" y="177">的流程</tspan></text><rect x="994" y="135" width="127" height="460" fill="#E33092"/><text fill="#FFFFFF" font-family="DengXian,DengXian_MSFontService,sans-serif" font-weight="700" font-size="27" transform="translate(1004.08 227)">数据库访<tspan x="13.3333" y="32">问对象</tspan><tspan font-family="Calibri,Calibri_MSFontService,sans-serif" x="28.3267" y="64">DAO</tspan><tspan fill="#FFFF00" font-size="24" x="5.33331" y="93">将对数据</tspan><tspan fill="#FFFF00" font-size="24" x="10.3333" y="122">库的</tspan><tspan fill="#FFFF00" font-family="Calibri,Calibri_MSFontService,sans-serif" font-size="24" x="58.3334" y="122">SQL</tspan><tspan fill="#FFFF00" font-size="24" x="5.33331" y="151">命令封装</tspan><tspan fill="#FFFF00" font-size="24" x="8.17999" y="180">为</tspan><tspan fill="#FFFF00" font-family="Calibri,Calibri_MSFontService,sans-serif" font-size="24" x="32.1801" y="180">Java</tspan><tspan fill="#FFFF00" font-size="24" x="74.4867" y="180">中</tspan><tspan fill="#FFFF00" font-size="24" x="5.33331" y="209">可调用的</tspan><tspan fill="#FFFF00" font-size="24" x="5.33331" y="237">方法，将</tspan><tspan fill="#FFFF00" font-size="24" x="5.33331" y="266">数据封装</tspan><tspan fill="#FFFF00" font-size="24" x="0.273315" y="295">为</tspan><tspan fill="#FFFF00" font-family="Calibri,Calibri_MSFontService,sans-serif" font-size="24" x="24.2733" y="295">Entity</tspan><tspan fill="#FFFF00" font-size="24" x="82.3867" y="295">类</tspan></text><g clip-path="url(#clip4)"><g clip-path="url(#clip5)"><g clip-path="url(#clip6)"><path d="M1249 344C1249 348.418 1236.46 352 1221 352 1205.54 352 1193 348.418 1193 344 1193 339.582 1205.54 336 1221 336 1236.46 336 1249 339.582 1249 344Z"/><path d="M1241 364C1239.8 364 1239 363.2 1239 362 1239 360.8 1239.8 360 1241 360 1242.2 360 1243 360.8 1243 362 1243 363.2 1242.2 364 1241 364ZM1221 356C1205.6 356 1193 352.4 1193 348L1193 364C1193 368.4 1205.6 372 1221 372 1236.4 372 1249 368.4 1249 364L1249 348C1249 352.4 1236.4 356 1221 356Z"/><path d="M1241 384C1239.8 384 1239 383.2 1239 382 1239 380.8 1239.8 380 1241 380 1242.2 380 1243 380.8 1243 382 1243 383.2 1242.2 384 1241 384ZM1221 376C1205.6 376 1193 372.4 1193 368L1193 384C1193 388.4 1205.6 392 1221 392 1236.4 392 1249 388.4 1249 384L1249 368C1249 372.4 1236.4 376 1221 376Z"/><path d="M1241 404C1239.8 404 1239 403.2 1239 402 1239 400.8 1239.8 400 1241 400 1242.2 400 1243 400.8 1243 402 1243 403.2 1242.2 404 1241 404ZM1221 396C1205.6 396 1193 392.4 1193 388L1193 404C1193 408.4 1205.6 412 1221 412 1236.4 412 1249 408.4 1249 404L1249 388C1249 392.4 1236.4 396 1221 396Z"/></g></g></g><path d="M1125.17 233.005 1134.33 233.514 1143.59 235.068 1152.63 237.587 1161.45 240.998 1170 245.177 1178.17 250.128 1185.87 255.778 1193.06 262.004 1199.67 268.805 1205.71 276.068 1210.93 283.728 1215.44 291.724 1219.09 300.137 1221.86 310.557 1216.06 312.097 1213.35 301.895 1213.5 302.32 1210 294.257 1210.14 294.537 1205.76 286.787 1205.9 287.001 1200.83 279.563 1201.01 279.794 1195.13 272.731 1195.29 272.903 1188.85 266.278 1189.04 266.455 1182.04 260.393 1182.23 260.544 1174.73 255.044 1174.94 255.19 1167.01 250.378 1167.25 250.508 1158.93 246.445 1159.17 246.548 1150.61 243.235 1150.88 243.327 1142.13 240.89 1142.44 240.959 1133.5 239.459 1133.83 239.495 1124.83 238.995ZM1227.47 307.13 1221 326.188 1209.63 309.58Z" fill="#E33092"/><path d="M1223.99 422.2 1223.42 430.824 1221.73 439.545 1219.07 448.108 1215.44 456.459 1210.92 464.525 1205.65 472.183 1199.67 479.445 1193.06 486.188 1185.87 492.414 1178.1 498.06 1170.01 503.008 1161.45 507.189 1152.58 510.623 1140.59 513.438 1139.22 507.597 1151 504.83 1150.6 504.952 1159.17 501.64 1158.93 501.742 1167.24 497.68 1167 497.815 1174.87 493.003 1174.67 493.136 1182.24 487.636 1182.04 487.795 1189.04 481.732 1188.86 481.899 1195.3 475.337 1195.12 475.531 1200.93 468.469 1200.78 468.673 1205.9 461.235 1205.76 461.472 1210.13 453.659 1210 453.93 1213.5 445.868 1213.38 446.173 1215.95 437.923 1215.87 438.241 1217.49 429.866 1217.44 430.238 1218.01 421.8ZM1143.89 519.128 1125 512.188 1141.89 501.24Z" fill="#4EA6DC"/><path d="M722 243 783.426 243 783.426 249 722 249ZM780.426 237 798.426 246 780.426 255Z" fill="#E33092"/><path d="M917 243 978.426 243 978.426 249 917 249ZM975.426 237 993.426 246 975.426 255Z" fill="#E33092"/><path d="M4.33277e-06-3 57.6927-2.99992 57.6927 3.00008-4.33277e-06 3ZM54.6927-8.99992 72.6927 0.000104987 54.6927 9.00008Z" fill="#4EA6DC" transform="matrix(-1 0 0 1 989.693 519)"/><path d="M4.33277e-06-3 57.6927-2.99992 57.6927 3.00008-4.33277e-06 3ZM54.6927-8.99992 72.6927 0.000104987 54.6927 9.00008Z" fill="#4EA6DC" transform="matrix(-1 0 0 1 794.693 519)"/><path d="M0.053089-2.99953 21.2941-2.62358 42.4565-1.49325 63.2393 0.264814 83.5231 2.65114 103.187 5.6038 121.982 9.12406 139.777 13.1483 156.46 17.5552 171.827 22.4047 178.991 24.9405 185.703 27.5999 192.092 30.3202 198.013 33.0578 203.521 35.9397 208.524 38.8904 213.044 41.8608 217.104 44.9384 220.605 48.1087 223.628 51.3331 226.064 54.6747 227.841 58.1582 229.014 61.75 229.366 65.1935 229.557 68.3167 229.49 67.8429 230.177 70.9054 230.102 70.6313 231.102 73.6938 230.933 73.2834 232.433 76.2834 232.332 76.097 234.144 79.1595 233.969 78.8957 236.156 81.8332 235.952 81.5872 241.389 87.4622 241.108 87.1953 247.858 92.8203 247.633 92.65 255.57 98.0875 255.346 97.9478 264.346 103.01 264.169 102.919 274.232 107.731 274.057 107.654 284.932 112.029 284.789 111.976 296.414 115.976 296.258 115.927 308.57 119.427 308.417 119.388 321.292 122.325 321.154 122.297 334.404 124.672 334.257 124.649 347.882 126.399 347.742 126.385 361.617 127.51 361.456 127.501 375.393 127.876 375.232 127.876 389.169 127.501 389.033 127.508 402.846 126.508 402.707 126.521 416.332 124.896 416.188 124.917 429.5 122.667 429.37 122.692 442.183 119.942 442.033 119.978 454.346 116.665 454.218 116.703 465.843 113.015 465.691 113.068 476.629 108.943 476.471 109.008 486.471 104.57 486.273 104.667 495.273 99.8545 495.074 99.9706 503.012 94.9081 502.783 95.0694 509.533 89.8194 509.242 90.0783 514.679 84.5783 514.102 85.4015 515.617 82.2093 521.037 84.7813 519.304 88.4341 513.371 94.4356 506.356 99.8915 498.204 105.091 489.005 110.01 478.826 114.527 467.734 118.71 455.969 122.442 443.517 125.792 430.565 128.572 417.115 130.845 403.349 132.487 389.399 133.497 375.312 133.876 361.213 133.497 347.188 132.36 333.419 130.591 320.026 128.191 307.006 125.22 294.539 121.676 282.764 117.624 271.729 113.185 261.491 108.288 252.289 103.112 244.125 97.5201 237.118 91.6803 231.439 85.5452 229.062 82.352 227.114 79.0616 225.467 75.7677 224.354 72.3585 223.583 68.9229 223.381 65.6208 223.39 65.742 223.078 62.6795 223.211 63.3062 222.211 60.2437 222.39 60.6759 220.828 57.6134 221.076 58.0175 218.888 55.0175 219.124 55.3018 216.311 52.3018 216.486 52.4736 213.174 49.4736 213.375 49.6407 209.5 46.7032 209.665 46.8196 205.29 43.9446 205.414 44.0216 200.539 41.1466 200.672 41.2206 195.297 38.4081 195.428 38.473 189.616 35.7855 189.7 35.8228 183.387 33.1353 183.457 33.164 176.832 30.539 176.936 30.578 169.874 28.078 169.972 28.1109 154.722 23.2984 154.859 23.338 138.296 18.963 138.401 18.9886 120.713 14.9886 120.823 15.0112 102.135 11.5112 102.242 11.5292 82.6795 8.59174 82.7745 8.60445 62.587 6.22945 62.6846 6.23932 41.9971 4.48932 42.09 4.49573 21.0275 3.37073 21.1344 3.37453-0.053089 2.99953ZM508.87 82.7407 524.187 69.6875 525.44 89.7731Z" fill="#4EA6DC" transform="matrix(-1 1.22465e-16 1.22465e-16 1 583.183 365)"/><text fill="#E33092" font-family="DengXian,DengXian_MSFontService,sans-serif" font-weight="700" font-size="27" transform="translate(732.405 219)">调用<tspan x="195.511" y="0">调用</tspan><tspan x="407.349" y="0">调用</tspan><tspan fill="#4EA6DC" x="0" y="334">返回</tspan><tspan fill="#4EA6DC" x="0" y="366">数据</tspan><tspan fill="#4EA6DC" x="-333.514" y="114">返回</tspan><tspan fill="#4EA6DC" x="-333.514" y="146">数据</tspan><tspan fill="#4EA6DC" x="195.511" y="337">返回</tspan><tspan fill="#4EA6DC" x="195.511" y="369">数据</tspan><tspan fill="#4EA6DC" x="403.616" y="329">返回</tspan><tspan fill="#4EA6DC" x="403.616" y="361">数据</tspan><tspan x="-709.373" y="36">发出请求</tspan></text><path d="M2.00001 9.99999 2.00009 90.122-1.99991 90.122-1.99999 10ZM-5.99999 12 0 0 6.00001 12ZM6.00009 88.122 0.000104987 100.122-5.99991 88.122Z" fill="#4EA6DC" transform="matrix(1 0 0 -1 412 494.122)"/><text fill="#4EA6DC" font-family="DengXian,DengXian_MSFontService,sans-serif" font-weight="700" font-size="21" transform="translate(427.914 421)">首次登录<tspan x="-10.6667" y="26">生成并返回</tspan><tspan font-family="Calibri,Calibri_MSFontService,sans-serif" x="16.72" y="51">Token</tspan></text></g></svg>