<svg id="SvgjsSvg1006" width="954.0124969482422" height="754.5999908447266" xmlns="http://www.w3.org/2000/svg" version="1.1" xmlns:xlink="http://www.w3.org/1999/xlink" xmlns:svgjs="http://svgjs.com/svgjs"><defs id="SvgjsDefs1007"><marker id="SvgjsMarker1022" markerWidth="16" markerHeight="12" refX="16" refY="6" viewBox="0 0 16 12" orient="auto" markerUnits="userSpaceOnUse" stroke-dasharray="0,0"><path id="SvgjsPath1023" d="M0,2 L14,6 L0,11 L0,2" fill="#323232" stroke="#323232" stroke-width="2"></path></marker><marker id="SvgjsMarker1030" markerWidth="16" markerHeight="12" refX="16" refY="6" viewBox="0 0 16 12" orient="auto" markerUnits="userSpaceOnUse" stroke-dasharray="0,0"><path id="SvgjsPath1031" d="M0,2 L14,6 L0,11 L0,2" fill="#323232" stroke="#323232" stroke-width="2"></path></marker><marker id="SvgjsMarker1045" markerWidth="16" markerHeight="12" refX="16" refY="6" viewBox="0 0 16 12" orient="auto" markerUnits="userSpaceOnUse" stroke-dasharray="0,0"><path id="SvgjsPath1046" d="M0,2 L14,6 L0,11 L0,2" fill="#323232" stroke="#323232" stroke-width="2"></path></marker><marker id="SvgjsMarker1053" markerWidth="16" markerHeight="12" refX="16" refY="6" viewBox="0 0 16 12" orient="auto" markerUnits="userSpaceOnUse" stroke-dasharray="0,0"><path id="SvgjsPath1054" d="M0,2 L14,6 L0,11 L0,2" fill="#323232" stroke="#323232" stroke-width="2"></path></marker><marker id="SvgjsMarker1067" markerWidth="16" markerHeight="12" refX="16" refY="6" viewBox="0 0 16 12" orient="auto" markerUnits="userSpaceOnUse" stroke-dasharray="0,0"><path id="SvgjsPath1068" d="M0,2 L14,6 L0,11 L0,2" fill="#323232" stroke="#323232" stroke-width="2"></path></marker><marker id="SvgjsMarker1075" markerWidth="16" markerHeight="12" refX="16" refY="6" viewBox="0 0 16 12" orient="auto" markerUnits="userSpaceOnUse" stroke-dasharray="0,0"><path id="SvgjsPath1076" d="M0,2 L14,6 L0,11 L0,2" fill="#323232" stroke="#323232" stroke-width="2"></path></marker><marker id="SvgjsMarker1090" markerWidth="16" markerHeight="12" refX="16" refY="6" viewBox="0 0 16 12" orient="auto" markerUnits="userSpaceOnUse" stroke-dasharray="0,0"><path id="SvgjsPath1091" d="M0,2 L14,6 L0,11 L0,2" fill="#323232" stroke="#323232" stroke-width="2"></path></marker><marker id="SvgjsMarker1098" markerWidth="16" markerHeight="12" refX="16" refY="6" viewBox="0 0 16 12" orient="auto" markerUnits="userSpaceOnUse" stroke-dasharray="0,0"><path id="SvgjsPath1099" d="M0,2 L14,6 L0,11 L0,2" fill="#323232" stroke="#323232" stroke-width="2"></path></marker><marker id="SvgjsMarker1112" markerWidth="16" markerHeight="12" refX="16" refY="6" viewBox="0 0 16 12" orient="auto" markerUnits="userSpaceOnUse" stroke-dasharray="0,0"><path id="SvgjsPath1113" d="M0,2 L14,6 L0,11 L0,2" fill="#323232" stroke="#323232" stroke-width="2"></path></marker><marker id="SvgjsMarker1127" markerWidth="16" markerHeight="12" refX="16" refY="6" viewBox="0 0 16 12" orient="auto" markerUnits="userSpaceOnUse" stroke-dasharray="0,0"><path id="SvgjsPath1128" d="M0,2 L14,6 L0,11 L0,2" fill="#323232" stroke="#323232" stroke-width="2"></path></marker><marker id="SvgjsMarker1135" markerWidth="16" markerHeight="12" refX="16" refY="6" viewBox="0 0 16 12" orient="auto" markerUnits="userSpaceOnUse" stroke-dasharray="0,0"><path id="SvgjsPath1136" d="M0,2 L14,6 L0,11 L0,2" fill="#323232" stroke="#323232" stroke-width="2"></path></marker><marker id="SvgjsMarker1143" markerWidth="16" markerHeight="12" refX="16" refY="6" viewBox="0 0 16 12" orient="auto" markerUnits="userSpaceOnUse" stroke-dasharray="0,0"><path id="SvgjsPath1144" d="M0,2 L14,6 L0,11 L0,2" fill="#323232" stroke="#323232" stroke-width="2"></path></marker><marker id="SvgjsMarker1157" markerWidth="16" markerHeight="12" refX="16" refY="6" viewBox="0 0 16 12" orient="auto" markerUnits="userSpaceOnUse" stroke-dasharray="0,0"><path id="SvgjsPath1158" d="M0,2 L14,6 L0,11 L0,2" fill="#323232" stroke="#323232" stroke-width="2"></path></marker><marker id="SvgjsMarker1165" markerWidth="16" markerHeight="12" refX="16" refY="6" viewBox="0 0 16 12" orient="auto" markerUnits="userSpaceOnUse" stroke-dasharray="0,0"><path id="SvgjsPath1166" d="M0,2 L14,6 L0,11 L0,2" fill="#323232" stroke="#323232" stroke-width="2"></path></marker><marker id="SvgjsMarker1186" markerWidth="16" markerHeight="12" refX="16" refY="6" viewBox="0 0 16 12" orient="auto" markerUnits="userSpaceOnUse" stroke-dasharray="0,0"><path id="SvgjsPath1187" d="M0,2 L14,6 L0,11 L0,2" fill="#323232" stroke="#323232" stroke-width="2"></path></marker><marker id="SvgjsMarker1194" markerWidth="16" markerHeight="12" refX="16" refY="6" viewBox="0 0 16 12" orient="auto" markerUnits="userSpaceOnUse" stroke-dasharray="0,0"><path id="SvgjsPath1195" d="M0,2 L14,6 L0,11 L0,2" fill="#323232" stroke="#323232" stroke-width="2"></path></marker><marker id="SvgjsMarker1202" markerWidth="16" markerHeight="12" refX="16" refY="6" viewBox="0 0 16 12" orient="auto" markerUnits="userSpaceOnUse" stroke-dasharray="0,0"><path id="SvgjsPath1203" d="M0,2 L14,6 L0,11 L0,2" fill="#323232" stroke="#323232" stroke-width="2"></path></marker><marker id="SvgjsMarker1219" markerWidth="16" markerHeight="12" refX="16" refY="6" viewBox="0 0 16 12" orient="auto" markerUnits="userSpaceOnUse" stroke-dasharray="0,0"><path id="SvgjsPath1220" d="M0,2 L14,6 L0,11 L0,2" fill="#323232" stroke="#323232" stroke-width="2"></path></marker></defs><g id="SvgjsG1008" transform="translate(25.012496948242188,285.80001068115234)"><path id="SvgjsPath1009" d="M 0 0L 100 0L 100 70L 0 70Z" stroke="rgba(50,50,50,1)" stroke-width="2" fill-opacity="1" fill="#ffffff"></path><g id="SvgjsG1010"><text id="SvgjsText1011" font-family="微软雅黑" text-anchor="middle" font-size="13px" width="80px" fill="#323232" font-weight="400" align="middle" anchor="middle" family="微软雅黑" size="13px" weight="400" font-style="" opacity="1" y="25.05" transform="rotate(0)"><tspan id="SvgjsTspan1012" dy="16" x="50"><tspan id="SvgjsTspan1013" style="text-decoration:;">已登录用户A</tspan></tspan></text></g></g><g id="SvgjsG1014" transform="translate(373.0124969482422,148.80001068115234)"><path id="SvgjsPath1015" d="M 0 4Q 0 0 4 0L 96 0Q 100 0 100 4L 100 66Q 100 70 96 70L 4 70Q 0 70 0 66Z" stroke="rgba(50,50,50,1)" stroke-width="2" fill-opacity="1" fill="#ffffff"></path><g id="SvgjsG1016"><text id="SvgjsText1017" font-family="微软雅黑" text-anchor="middle" font-size="13px" width="80px" fill="#323232" font-weight="400" align="middle" anchor="middle" family="微软雅黑" size="13px" weight="400" font-style="" opacity="1" y="25.05" transform="rotate(0)"><tspan id="SvgjsTspan1018" dy="16" x="50"><tspan id="SvgjsTspan1019" style="text-decoration:;">关注操作</tspan></tspan></text></g></g><g id="SvgjsG1020"><path id="SvgjsPath1021" d="M75.01249694824219 285.80001068115234L75.01249694824219 164.80001068115234L373.0124969482422 164.80001068115234" stroke="#323232" stroke-width="2" fill="none" marker-end="url(#SvgjsMarker1022)"></path><rect id="SvgjsRect1024" width="91" height="16" x="118.01249694824219" y="156.80001068115234" fill="#ffffff"></rect><text id="SvgjsText1025" font-family="微软雅黑" text-anchor="middle" font-size="13px" width="91px" fill="#323232" font-weight="400" align="top" anchor="middle" family="微软雅黑" size="13px" weight="400" font-style="" opacity="1" y="154.85001068115236" transform="rotate(0)"><tspan id="SvgjsTspan1026" dy="16" x="163.5124969482422"><tspan id="SvgjsTspan1027" style="text-decoration:;">关注或取关信息</tspan></tspan></text></g><g id="SvgjsG1028"><path id="SvgjsPath1029" d="M373.0124969482422 199.80001068115234L94.01249694824219 199.80001068115234L94.01249694824219 285.80001068115234" stroke="#323232" stroke-width="2" fill="none" marker-end="url(#SvgjsMarker1030)"></path><rect id="SvgjsRect1032" width="104" height="16" x="138.5124969482422" y="191.80001068115234" fill="#ffffff"></rect><text id="SvgjsText1033" font-family="微软雅黑" text-anchor="middle" font-size="13px" width="104px" fill="#323232" font-weight="400" align="top" anchor="middle" family="微软雅黑" size="13px" weight="400" font-style="" opacity="1" y="189.85001068115236" transform="rotate(0)"><tspan id="SvgjsTspan1034" dy="16" x="190.5124969482422"><tspan id="SvgjsTspan1035" style="text-decoration:;">关注与被关注信息</tspan></tspan></text></g><g id="SvgjsG1036" transform="translate(700.0124969482422,157.80001068115234)"><path id="SvgjsPath1037" d="M 0 0L 115 0L 0 0M 0 39L 115 39L 0 39Z" stroke="rgba(50,50,50,1)" stroke-width="2" fill-opacity="1" fill="#ffffff"></path><path id="SvgjsPath1038" d="M 0 0L 115 0L 115 39L 0 39L 0 0Z" stroke="none" fill="none"></path><g id="SvgjsG1039"><text id="SvgjsText1040" font-family="微软雅黑" text-anchor="middle" font-size="13px" width="95px" fill="#323232" font-weight="400" align="middle" anchor="middle" family="微软雅黑" size="13px" weight="400" font-style="" opacity="1" y="9.55" transform="rotate(0)"><tspan id="SvgjsTspan1041" dy="16" x="57.5"><tspan id="SvgjsTspan1042" style="text-decoration:;">关注信息表</tspan></tspan></text></g></g><g id="SvgjsG1043"><path id="SvgjsPath1044" d="M473.0124969482422 167.80001068115234L586.5124969482422 167.80001068115234L586.5124969482422 163.80001068115234L700.0124969482422 163.80001068115234" stroke="#323232" stroke-width="2" fill="none" marker-end="url(#SvgjsMarker1045)"></path><rect id="SvgjsRect1047" width="130" height="16" x="521.5124969482422" y="157.80001068115234" fill="#ffffff"></rect><text id="SvgjsText1048" font-family="微软雅黑" text-anchor="middle" font-size="13px" width="130px" fill="#323232" font-weight="400" align="top" anchor="middle" family="微软雅黑" size="13px" weight="400" font-style="" opacity="1" y="155.85001068115236" transform="rotate(0)"><tspan id="SvgjsTspan1049" dy="16" x="586.5124969482422"><tspan id="SvgjsTspan1050" style="text-decoration:;">用户的关注与取关信息</tspan></tspan></text></g><g id="SvgjsG1051"><path id="SvgjsPath1052" d="M700.7109600521717 188.089909964524L586.8617285002069 188.089909964524L586.8617285002069 191.80001068115234L473.0124969482422 191.80001068115234" stroke="#323232" stroke-width="2" fill="none" marker-end="url(#SvgjsMarker1053)"></path><rect id="SvgjsRect1055" width="143" height="16" x="515.3617285002069" y="181.94496032283817" fill="#ffffff"></rect><text id="SvgjsText1056" font-family="微软雅黑" text-anchor="middle" font-size="13px" width="143px" fill="#323232" font-weight="400" align="top" anchor="middle" family="微软雅黑" size="13px" weight="400" font-style="" opacity="1" y="179.99496032283818" transform="rotate(0)"><tspan id="SvgjsTspan1057" dy="16" x="586.8617285002069"><tspan id="SvgjsTspan1058" style="text-decoration:;">用户的关注与被关注信息</tspan></tspan></text></g><g id="SvgjsG1059" transform="translate(373.0124969482422,288.80001068115234)"><path id="SvgjsPath1060" d="M 0 4Q 0 0 4 0L 96 0Q 100 0 100 4L 100 66Q 100 70 96 70L 4 70Q 0 70 0 66Z" stroke="rgba(50,50,50,1)" stroke-width="2" fill-opacity="1" fill="#ffffff"></path><g id="SvgjsG1061"><text id="SvgjsText1062" font-family="微软雅黑" text-anchor="middle" font-size="13px" width="80px" fill="#323232" font-weight="400" align="middle" anchor="middle" family="微软雅黑" size="13px" weight="400" font-style="" opacity="1" y="25.05" transform="rotate(0)"><tspan id="SvgjsTspan1063" dy="16" x="50"><tspan id="SvgjsTspan1064" style="text-decoration:;">收藏操作</tspan></tspan></text></g></g><g id="SvgjsG1065"><path id="SvgjsPath1066" d="M125.01249694824219 296.80001068115234L249.0124969482422 296.80001068115234L249.0124969482422 296.80001068115234L373.0124969482422 296.80001068115234" stroke="#323232" stroke-width="2" fill="none" marker-end="url(#SvgjsMarker1067)"></path><rect id="SvgjsRect1069" width="182" height="16" x="158.0124969482422" y="288.80001068115234" fill="#ffffff"></rect><text id="SvgjsText1070" font-family="微软雅黑" text-anchor="middle" font-size="13px" width="182px" fill="#323232" font-weight="400" align="top" anchor="middle" family="微软雅黑" size="13px" weight="400" font-style="" opacity="1" y="286.85001068115236" transform="rotate(0)"><tspan id="SvgjsTspan1071" dy="16" x="249.0124969482422"><tspan id="SvgjsTspan1072" style="text-decoration:;">收藏视频、番剧、专栏操作信息</tspan></tspan></text></g><g id="SvgjsG1073"><path id="SvgjsPath1074" d="M373.0124969482422 344.80001068115234L249.0124969482422 344.80001068115234L249.0124969482422 344.80001068115234L125.01249694824219 344.80001068115234" stroke="#323232" stroke-width="2" fill="none" marker-end="url(#SvgjsMarker1075)"></path><rect id="SvgjsRect1077" width="182" height="16" x="158.0124969482422" y="336.80001068115234" fill="#ffffff"></rect><text id="SvgjsText1078" font-family="微软雅黑" text-anchor="middle" font-size="13px" width="182px" fill="#323232" font-weight="400" align="top" anchor="middle" family="微软雅黑" size="13px" weight="400" font-style="" opacity="1" y="334.85001068115236" transform="rotate(0)"><tspan id="SvgjsTspan1079" dy="16" x="249.0124969482422"><tspan id="SvgjsTspan1080" style="text-decoration:;">已收藏的视频、专栏、番剧信息</tspan></tspan></text></g><g id="SvgjsG1081" transform="translate(778.0124969482422,299.80001068115234)"><path id="SvgjsPath1082" d="M 0 0L 104 0L 0 0M 0 34L 104 34L 0 34Z" stroke="rgba(50,50,50,1)" stroke-width="2" fill-opacity="1" fill="#ffffff"></path><path id="SvgjsPath1083" d="M 0 0L 104 0L 104 34L 0 34L 0 0Z" stroke="none" fill="none"></path><g id="SvgjsG1084"><text id="SvgjsText1085" font-family="微软雅黑" text-anchor="middle" font-size="13px" width="84px" fill="#323232" font-weight="400" align="middle" anchor="middle" family="微软雅黑" size="13px" weight="400" font-style="" opacity="1" y="7.05" transform="rotate(0)"><tspan id="SvgjsTspan1086" dy="16" x="52"><tspan id="SvgjsTspan1087" style="text-decoration:;">收藏信息表</tspan></tspan></text></g></g><g id="SvgjsG1088"><path id="SvgjsPath1089" d="M473.0124969482422 313.80001068115234L625.5124969482422 313.80001068115234L625.5124969482422 312.80001068115234L778.0124969482422 312.80001068115234" stroke="#323232" stroke-width="2" fill="none" marker-end="url(#SvgjsMarker1090)"></path><rect id="SvgjsRect1092" width="156" height="16" x="547.5124969482422" y="305.30001068115234" fill="#ffffff"></rect><text id="SvgjsText1093" font-family="微软雅黑" text-anchor="middle" font-size="13px" width="156px" fill="#323232" font-weight="400" align="top" anchor="middle" family="微软雅黑" size="13px" weight="400" font-style="" opacity="1" y="303.35001068115236" transform="rotate(0)"><tspan id="SvgjsTspan1094" dy="16" x="625.5124969482422"><tspan id="SvgjsTspan1095" style="text-decoration:;">收藏视频、番剧、专栏信息</tspan></tspan></text></g><g id="SvgjsG1096"><path id="SvgjsPath1097" d="M830.0124969482422 333.80001068115234L830.0124969482422 344.80001068115234L473.0124969482422 344.80001068115234" stroke="#323232" stroke-width="2" fill="none" marker-end="url(#SvgjsMarker1098)"></path><rect id="SvgjsRect1100" width="117" height="16" x="598.5124969482422" y="336.80001068115234" fill="#ffffff"></rect><text id="SvgjsText1101" font-family="微软雅黑" text-anchor="middle" font-size="13px" width="117px" fill="#323232" font-weight="400" align="top" anchor="middle" family="微软雅黑" size="13px" weight="400" font-style="" opacity="1" y="334.85001068115236" transform="rotate(0)"><tspan id="SvgjsTspan1102" dy="16" x="657.0124969482422"><tspan id="SvgjsTspan1103" style="text-decoration:;">用户的所有收藏信息</tspan></tspan></text></g><g id="SvgjsG1104" transform="translate(386.0124969482422,409.80001068115234)"><path id="SvgjsPath1105" d="M 0 4Q 0 0 4 0L 96 0Q 100 0 100 4L 100 66Q 100 70 96 70L 4 70Q 0 70 0 66Z" stroke="rgba(50,50,50,1)" stroke-width="2" fill-opacity="1" fill="#ffffff"></path><g id="SvgjsG1106"><text id="SvgjsText1107" font-family="微软雅黑" text-anchor="middle" font-size="13px" width="80px" fill="#323232" font-weight="400" align="middle" anchor="middle" family="微软雅黑" size="13px" weight="400" font-style="" opacity="1" y="25.05" transform="rotate(0)"><tspan id="SvgjsTspan1108" dy="16" x="50"><tspan id="SvgjsTspan1109" style="text-decoration:;">点赞操作</tspan></tspan></text></g></g><g id="SvgjsG1110"><path id="SvgjsPath1111" d="M116.01249694824219 355.20001220703125L116.01249694824219 428.20001220703125L386.0124969482422 428.20001220703125" stroke="#323232" stroke-width="2" fill="none" marker-end="url(#SvgjsMarker1112)"></path><rect id="SvgjsRect1114" width="260" height="16" x="84.51249694824219" y="420.20001220703125" fill="#ffffff"></rect><text id="SvgjsText1115" font-family="微软雅黑" text-anchor="middle" font-size="13px" width="260px" fill="#323232" font-weight="400" align="top" anchor="middle" family="微软雅黑" size="13px" weight="400" font-style="" opacity="1" y="418.25001220703126" transform="rotate(0)"><tspan id="SvgjsTspan1116" dy="16" x="214.5124969482422"><tspan id="SvgjsTspan1117" style="text-decoration:;">点赞视频、专栏、评论、动态、番剧操作信息</tspan></tspan></text></g><g id="SvgjsG1118" transform="translate(825.0124969482422,430.80001068115234)"><path id="SvgjsPath1119" d="M 0 0L 104 0L 0 0M 0 34L 104 34L 0 34Z" stroke="rgba(50,50,50,1)" stroke-width="2" fill-opacity="1" fill="#ffffff"></path><path id="SvgjsPath1120" d="M 0 0L 104 0L 104 34L 0 34L 0 0Z" stroke="none" fill="none"></path><g id="SvgjsG1121"><text id="SvgjsText1122" font-family="微软雅黑" text-anchor="middle" font-size="13px" width="84px" fill="#323232" font-weight="400" align="middle" anchor="middle" family="微软雅黑" size="13px" weight="400" font-style="" opacity="1" y="7.05" transform="rotate(0)"><tspan id="SvgjsTspan1123" dy="16" x="52"><tspan id="SvgjsTspan1124" style="text-decoration:;">点赞信息表</tspan></tspan></text></g></g><g id="SvgjsG1125"><path id="SvgjsPath1126" d="M485.0124969482422 434.20001220703125L655.0124969482422 434.20001220703125L655.0124969482422 438.20001220703125L825.0124969482422 438.20001220703125" stroke="#323232" stroke-width="2" fill="none" marker-end="url(#SvgjsMarker1127)"></path><rect id="SvgjsRect1129" width="234" height="16" x="538.0124969482422" y="428.20001220703125" fill="#ffffff"></rect><text id="SvgjsText1130" font-family="微软雅黑" text-anchor="middle" font-size="13px" width="234px" fill="#323232" font-weight="400" align="top" anchor="middle" family="微软雅黑" size="13px" weight="400" font-style="" opacity="1" y="426.25001220703126" transform="rotate(0)"><tspan id="SvgjsTspan1131" dy="16" x="655.0124969482422"><tspan id="SvgjsTspan1132" style="text-decoration:;">点赞视频、专栏、评论、动态、番剧信息</tspan></tspan></text></g><g id="SvgjsG1133"><path id="SvgjsPath1134" d="M386.0124969482422 461.40000915527344L75.01249694824219 461.40000915527344L75.01249694824219 355.80001068115234" stroke="#323232" stroke-width="2" fill="none" marker-end="url(#SvgjsMarker1135)"></path><rect id="SvgjsRect1137" width="130" height="16" x="112.71249771118164" y="453.40000915527344" fill="#ffffff"></rect><text id="SvgjsText1138" font-family="微软雅黑" text-anchor="middle" font-size="13px" width="130px" fill="#323232" font-weight="400" align="top" anchor="middle" family="微软雅黑" size="13px" weight="400" font-style="" opacity="1" y="451.45000915527345" transform="rotate(0)"><tspan id="SvgjsTspan1139" dy="16" x="177.71249771118164"><tspan id="SvgjsTspan1140" style="text-decoration:;">已点赞的各类实体信息</tspan></tspan></text></g><g id="SvgjsG1141"><path id="SvgjsPath1142" d="M825.47659856338 457.40000915527344L655.744547755811 457.40000915527344L655.744547755811 461.40000915527344L486.0124969482422 461.40000915527344" stroke="#323232" stroke-width="2" fill="none" marker-end="url(#SvgjsMarker1143)"></path><rect id="SvgjsRect1145" width="143" height="16" x="584.244547755811" y="451.4000091552734" fill="#ffffff"></rect><text id="SvgjsText1146" font-family="微软雅黑" text-anchor="middle" font-size="13px" width="143px" fill="#323232" font-weight="400" align="top" anchor="middle" family="微软雅黑" size="13px" weight="400" font-style="" opacity="1" y="449.4500091552734" transform="rotate(0)"><tspan id="SvgjsTspan1147" dy="16" x="655.744547755811"><tspan id="SvgjsTspan1148" style="text-decoration:;">用户点赞的所有实体信息</tspan></tspan></text></g><g id="SvgjsG1149" transform="translate(390.0124969482422,558.2000122070312)"><path id="SvgjsPath1150" d="M 0 4Q 0 0 4 0L 96 0Q 100 0 100 4L 100 66Q 100 70 96 70L 4 70Q 0 70 0 66Z" stroke="rgba(50,50,50,1)" stroke-width="2" fill-opacity="1" fill="#ffffff"></path><g id="SvgjsG1151"><text id="SvgjsText1152" font-family="微软雅黑" text-anchor="middle" font-size="13px" width="80px" fill="#323232" font-weight="400" align="middle" anchor="middle" family="微软雅黑" size="13px" weight="400" font-style="" opacity="1" y="25.05" transform="rotate(0)"><tspan id="SvgjsTspan1153" dy="16" x="50"><tspan id="SvgjsTspan1154" style="text-decoration:;">观看操作</tspan></tspan></text></g></g><g id="SvgjsG1155"><path id="SvgjsPath1156" d="M53.01249694824219 353.40000915527344L53.01249694824219 571.4000091552734L390.0124969482422 571.4000091552734" stroke="#323232" stroke-width="2" fill="none" marker-end="url(#SvgjsMarker1157)"></path><rect id="SvgjsRect1159" width="130" height="16" x="47.51249694824219" y="563.4000091552734" fill="#ffffff"></rect><text id="SvgjsText1160" font-family="微软雅黑" text-anchor="middle" font-size="13px" width="130px" fill="#323232" font-weight="400" align="top" anchor="middle" family="微软雅黑" size="13px" weight="400" font-style="" opacity="1" y="561.4500091552734" transform="rotate(0)"><tspan id="SvgjsTspan1161" dy="16" x="112.51249694824219"><tspan id="SvgjsTspan1162" style="text-decoration:;">观看视频、专栏、番剧</tspan></tspan></text></g><g id="SvgjsG1163"><path id="SvgjsPath1164" d="M390.0124969482422 614.4000091552734L28.012496948242188 614.4000091552734L28.012496948242188 355.40000915527344" stroke="#323232" stroke-width="2" fill="none" marker-end="url(#SvgjsMarker1165)"></path><rect id="SvgjsRect1167" width="91" height="16" x="34.01249694824219" y="606.4000091552734" fill="#ffffff"></rect><text id="SvgjsText1168" font-family="微软雅黑" text-anchor="middle" font-size="13px" width="91px" fill="#323232" font-weight="400" align="top" anchor="middle" family="微软雅黑" size="13px" weight="400" font-style="" opacity="1" y="604.4500091552734" transform="rotate(0)"><tspan id="SvgjsTspan1169" dy="16" x="79.51249694824219"><tspan id="SvgjsTspan1170" style="text-decoration:;">曾观看过的视频</tspan></tspan></text></g><g id="SvgjsG1171" transform="translate(791.0124969482422,575.1000137329102)"><path id="SvgjsPath1172" d="M 0 0L 106 0L 0 0M 0 36.19999694824219L 106 36.19999694824219L 0 36.19999694824219Z" stroke="rgba(50,50,50,1)" stroke-width="2" fill-opacity="1" fill="#ffffff"></path><path id="SvgjsPath1173" d="M 0 0L 106 0L 106 36.19999694824219L 0 36.19999694824219L 0 0Z" stroke="none" fill="none"></path><g id="SvgjsG1174"><text id="SvgjsText1175" font-family="微软雅黑" text-anchor="middle" font-size="13px" width="86px" fill="#323232" font-weight="400" align="middle" anchor="middle" family="微软雅黑" size="13px" weight="400" font-style="" opacity="1" y="8.149998474121094" transform="rotate(0)"><tspan id="SvgjsTspan1176" dy="16" x="53"><tspan id="SvgjsTspan1177" style="text-decoration:;">历史信息表</tspan></tspan></text></g></g><g id="SvgjsG1178" transform="translate(373.0124969482422,25.000011444091797)"><path id="SvgjsPath1179" d="M 0 0L 100 0L 100 43.59999465942383L 0 43.59999465942383Z" stroke="rgba(50,50,50,1)" stroke-width="2" fill-opacity="1" fill="#ffffff"></path><g id="SvgjsG1180"><text id="SvgjsText1181" font-family="微软雅黑" text-anchor="middle" font-size="13px" width="80px" fill="#323232" font-weight="400" align="middle" anchor="middle" family="微软雅黑" size="13px" weight="400" font-style="" opacity="1" y="11.849997329711915" transform="rotate(0)"><tspan id="SvgjsTspan1182" dy="16" x="50"><tspan id="SvgjsTspan1183" style="text-decoration:;">已登录用户B</tspan></tspan></text></g></g><g id="SvgjsG1184"><path id="SvgjsPath1185" d="M423.0124969482422 148.80001068115234L423.0124969482422 108.70000839233398L423.0124969482422 108.70000839233398L423.0124969482422 68.60000610351562" stroke="#323232" stroke-width="2" fill="none" marker-end="url(#SvgjsMarker1186)"></path><rect id="SvgjsRect1188" width="65" height="16" x="390.5124969482422" y="100.70000839233398" fill="#ffffff"></rect><text id="SvgjsText1189" font-family="微软雅黑" text-anchor="middle" font-size="13px" width="65px" fill="#323232" font-weight="400" align="top" anchor="middle" family="微软雅黑" size="13px" weight="400" font-style="" opacity="1" y="98.75000839233398" transform="rotate(0)"><tspan id="SvgjsTspan1190" dy="16" x="423.0124969482422"><tspan id="SvgjsTspan1191" style="text-decoration:;">被关注信息</tspan></tspan></text></g><g id="SvgjsG1192"><path id="SvgjsPath1193" d="M490.0124969482422 580.4000091552734L640.5124969482422 580.4000091552734L640.5124969482422 582.3000106811523L791.0124969482422 582.3000106811523" stroke="#323232" stroke-width="2" fill="none" marker-end="url(#SvgjsMarker1194)"></path><rect id="SvgjsRect1196" width="182" height="16" x="549.5124969482422" y="573.3500099182129" fill="#ffffff"></rect><text id="SvgjsText1197" font-family="微软雅黑" text-anchor="middle" font-size="13px" width="182px" fill="#323232" font-weight="400" align="top" anchor="middle" family="微软雅黑" size="13px" weight="400" font-style="" opacity="1" y="571.4000099182128" transform="rotate(0)"><tspan id="SvgjsTspan1198" dy="16" x="640.5124969482422"><tspan id="SvgjsTspan1199" style="text-decoration:;">观看视频、专栏、番剧历史信息</tspan></tspan></text></g><g id="SvgjsG1200"><path id="SvgjsPath1201" d="M791.4503436704621 603.8642995848293L640.7314203093522 603.8642995848293L640.7314203093522 616.4000091552734L490.0124969482422 616.4000091552734" stroke="#323232" stroke-width="2" fill="none" marker-end="url(#SvgjsMarker1202)"></path><rect id="SvgjsRect1204" width="143" height="16" x="569.2314203093522" y="602.1321543700515" fill="#ffffff"></rect><text id="SvgjsText1205" font-family="微软雅黑" text-anchor="middle" font-size="13px" width="143px" fill="#323232" font-weight="400" align="top" anchor="middle" family="微软雅黑" size="13px" weight="400" font-style="" opacity="1" y="600.1821543700514" transform="rotate(0)"><tspan id="SvgjsTspan1206" dy="16" x="640.7314203093522"><tspan id="SvgjsTspan1207" style="text-decoration:;">用户曾观看过的历史信息</tspan></tspan></text></g><g id="SvgjsG1208" transform="translate(787.0124969482422,689.6000061035156)"><path id="SvgjsPath1209" d="M 0 0L 122 0L 0 0M 0 40L 122 40L 0 40Z" stroke="rgba(50,50,50,1)" stroke-width="2" fill-opacity="1" fill="#ffffff"></path><path id="SvgjsPath1210" d="M 0 0L 122 0L 122 40L 0 40L 0 0Z" stroke="none" fill="none"></path><g id="SvgjsG1211"><text id="SvgjsText1212" font-family="微软雅黑" text-anchor="middle" font-size="13px" width="102px" fill="#323232" font-weight="400" align="middle" anchor="middle" family="微软雅黑" size="13px" weight="400" font-style="" opacity="1" y="2.05" transform="rotate(0)"><tspan id="SvgjsTspan1213" dy="16" x="61"><tspan id="SvgjsTspan1214" style="text-decoration:;">视频、专栏、番</tspan></tspan><tspan id="SvgjsTspan1215" dy="16" x="61"><tspan id="SvgjsTspan1216" style="text-decoration:;">剧等实体信息表</tspan></tspan></text></g></g><g id="SvgjsG1217"><path id="SvgjsPath1218" d="M440.0124969482422 628.2000122070312L440.0124969482422 711.6000061035156L787.0124969482422 711.6000061035156" stroke="#323232" stroke-width="2" fill="none" marker-end="url(#SvgjsMarker1219)"></path><rect id="SvgjsRect1221" width="65" height="16" x="539.3125" y="703.6000061035156" fill="#ffffff"></rect><text id="SvgjsText1222" font-family="微软雅黑" text-anchor="middle" font-size="13px" width="65px" fill="#323232" font-weight="400" align="top" anchor="middle" family="微软雅黑" size="13px" weight="400" font-style="" opacity="1" y="701.6500061035156" transform="rotate(0)"><tspan id="SvgjsTspan1223" dy="16" x="571.8125"><tspan id="SvgjsTspan1224" style="text-decoration:;">浏览量信息</tspan></tspan></text></g></svg>