<svg id="SvgjsSvg1006" width="699" height="565.0124969482422" xmlns="http://www.w3.org/2000/svg" version="1.1" xmlns:xlink="http://www.w3.org/1999/xlink" xmlns:svgjs="http://svgjs.com/svgjs"><defs id="SvgjsDefs1007"><marker id="SvgjsMarker1022" markerWidth="16" markerHeight="12" refX="16" refY="6" viewBox="0 0 16 12" orient="auto" markerUnits="userSpaceOnUse" stroke-dasharray="0,0"><path id="SvgjsPath1023" d="M0,2 L14,6 L0,11 L0,2" fill="#323232" stroke="#323232" stroke-width="2"></path></marker><marker id="SvgjsMarker1037" markerWidth="16" markerHeight="12" refX="16" refY="6" viewBox="0 0 16 12" orient="auto" markerUnits="userSpaceOnUse" stroke-dasharray="0,0"><path id="SvgjsPath1038" d="M0,2 L14,6 L0,11 L0,2" fill="#323232" stroke="#323232" stroke-width="2"></path></marker><marker id="SvgjsMarker1052" markerWidth="16" markerHeight="12" refX="16" refY="6" viewBox="0 0 16 12" orient="auto" markerUnits="userSpaceOnUse" stroke-dasharray="0,0"><path id="SvgjsPath1053" d="M0,2 L14,6 L0,11 L0,2" fill="#323232" stroke="#323232" stroke-width="2"></path></marker><marker id="SvgjsMarker1060" markerWidth="16" markerHeight="12" refX="16" refY="6" viewBox="0 0 16 12" orient="auto" markerUnits="userSpaceOnUse" stroke-dasharray="0,0"><path id="SvgjsPath1061" d="M0,2 L14,6 L0,11 L0,2" fill="#323232" stroke="#323232" stroke-width="2"></path></marker><marker id="SvgjsMarker1074" markerWidth="16" markerHeight="12" refX="16" refY="6" viewBox="0 0 16 12" orient="auto" markerUnits="userSpaceOnUse" stroke-dasharray="0,0"><path id="SvgjsPath1075" d="M0,2 L14,6 L0,11 L0,2" fill="#323232" stroke="#323232" stroke-width="2"></path></marker><marker id="SvgjsMarker1082" markerWidth="16" markerHeight="12" refX="16" refY="6" viewBox="0 0 16 12" orient="auto" markerUnits="userSpaceOnUse" stroke-dasharray="0,0"><path id="SvgjsPath1083" d="M0,2 L14,6 L0,11 L0,2" fill="#323232" stroke="#323232" stroke-width="2"></path></marker><marker id="SvgjsMarker1096" markerWidth="16" markerHeight="12" refX="16" refY="6" viewBox="0 0 16 12" orient="auto" markerUnits="userSpaceOnUse" stroke-dasharray="0,0"><path id="SvgjsPath1097" d="M0,2 L14,6 L0,11 L0,2" fill="#323232" stroke="#323232" stroke-width="2"></path></marker><marker id="SvgjsMarker1104" markerWidth="16" markerHeight="12" refX="16" refY="6" viewBox="0 0 16 12" orient="auto" markerUnits="userSpaceOnUse" stroke-dasharray="0,0"><path id="SvgjsPath1105" d="M0,2 L14,6 L0,11 L0,2" fill="#323232" stroke="#323232" stroke-width="2"></path></marker><marker id="SvgjsMarker1118" markerWidth="16" markerHeight="12" refX="16" refY="6" viewBox="0 0 16 12" orient="auto" markerUnits="userSpaceOnUse" stroke-dasharray="0,0"><path id="SvgjsPath1119" d="M0,2 L14,6 L0,11 L0,2" fill="#323232" stroke="#323232" stroke-width="2"></path></marker><marker id="SvgjsMarker1135" markerWidth="16" markerHeight="12" refX="16" refY="6" viewBox="0 0 16 12" orient="auto" markerUnits="userSpaceOnUse" stroke-dasharray="0,0"><path id="SvgjsPath1136" d="M0,2 L14,6 L0,11 L0,2" fill="#323232" stroke="#323232" stroke-width="2"></path></marker></defs><g id="SvgjsG1008" transform="translate(36,124.01249694824219)"><path id="SvgjsPath1009" d="M 0 0L 100 0L 100 70L 0 70Z" stroke="rgba(50,50,50,1)" stroke-width="2" fill-opacity="1" fill="#ffffff"></path><g id="SvgjsG1010"><text id="SvgjsText1011" font-family="微软雅黑" text-anchor="middle" font-size="13px" width="80px" fill="#323232" font-weight="400" align="middle" anchor="middle" family="微软雅黑" size="13px" weight="400" font-style="" opacity="1" y="25.05" transform="rotate(0)"><tspan id="SvgjsTspan1012" dy="16" x="50"><tspan id="SvgjsTspan1013" style="text-decoration:;">用户</tspan></tspan></text></g></g><g id="SvgjsG1014" transform="translate(289,124.01249694824219)"><path id="SvgjsPath1015" d="M 0 4Q 0 0 4 0L 96 0Q 100 0 100 4L 100 66Q 100 70 96 70L 4 70Q 0 70 0 66Z" stroke="rgba(50,50,50,1)" stroke-width="2" fill-opacity="1" fill="#ffffff"></path><g id="SvgjsG1016"><text id="SvgjsText1017" font-family="微软雅黑" text-anchor="middle" font-size="13px" width="80px" fill="#323232" font-weight="400" align="middle" anchor="middle" family="微软雅黑" size="13px" weight="400" font-style="" opacity="1" y="25.05" transform="rotate(0)"><tspan id="SvgjsTspan1018" dy="16" x="50"><tspan id="SvgjsTspan1019" style="text-decoration:;">用户登录</tspan></tspan></text></g></g><g id="SvgjsG1020"><path id="SvgjsPath1021" d="M136 159.0124969482422L212.5 159.0124969482422L212.5 159.0124969482422L289 159.0124969482422" stroke="#323232" stroke-width="2" fill="none" marker-end="url(#SvgjsMarker1022)"></path><rect id="SvgjsRect1024" width="78" height="16" x="173.5" y="151.0124969482422" fill="#ffffff"></rect><text id="SvgjsText1025" font-family="微软雅黑" text-anchor="middle" font-size="13px" width="78px" fill="#323232" font-weight="400" align="top" anchor="middle" family="微软雅黑" size="13px" weight="400" font-style="" opacity="1" y="149.0624969482422" transform="rotate(0)"><tspan id="SvgjsTspan1026" dy="16" x="212.5"><tspan id="SvgjsTspan1027" style="text-decoration:;">用户账号信息</tspan></tspan></text></g><g id="SvgjsG1028" transform="translate(574,319.0124969482422)"><path id="SvgjsPath1029" d="M 0 0L 100 0L 0 0M 0 70L 100 70L 0 70Z" stroke="rgba(50,50,50,1)" stroke-width="2" fill-opacity="1" fill="#ffffff"></path><path id="SvgjsPath1030" d="M 0 0L 100 0L 100 70L 0 70L 0 0Z" stroke="none" fill="none"></path><g id="SvgjsG1031"><text id="SvgjsText1032" font-family="微软雅黑" text-anchor="middle" font-size="13px" width="80px" fill="#323232" font-weight="400" align="middle" anchor="middle" family="微软雅黑" size="13px" weight="400" font-style="" opacity="1" y="25.05" transform="rotate(0)"><tspan id="SvgjsTspan1033" dy="16" x="50"><tspan id="SvgjsTspan1034" style="text-decoration:;">用户信息表</tspan></tspan></text></g></g><g id="SvgjsG1035"><path id="SvgjsPath1036" d="M624 319.0124969482422L624 256.5124969482422L339 256.5124969482422L339 194.0124969482422" stroke="#323232" stroke-width="2" fill="none" marker-end="url(#SvgjsMarker1037)"></path><rect id="SvgjsRect1039" width="78" height="16" x="442.5" y="248.5124969482422" fill="#ffffff"></rect><text id="SvgjsText1040" font-family="微软雅黑" text-anchor="middle" font-size="13px" width="78px" fill="#323232" font-weight="400" align="top" anchor="middle" family="微软雅黑" size="13px" weight="400" font-style="" opacity="1" y="246.5624969482422" transform="rotate(0)"><tspan id="SvgjsTspan1041" dy="16" x="481.5"><tspan id="SvgjsTspan1042" style="text-decoration:;">用户账号信息</tspan></tspan></text></g><g id="SvgjsG1043" transform="translate(285,25.012496948242188)"><path id="SvgjsPath1044" d="M 0 0L 108 0L 0 0M 0 41L 108 41L 0 41Z" stroke="rgba(50,50,50,1)" stroke-width="2" fill-opacity="1" fill="#ffffff"></path><path id="SvgjsPath1045" d="M 0 0L 108 0L 108 41L 0 41L 0 0Z" stroke="none" fill="none"></path><g id="SvgjsG1046"><text id="SvgjsText1047" font-family="微软雅黑" text-anchor="middle" font-size="13px" width="88px" fill="#323232" font-weight="400" align="middle" anchor="middle" family="微软雅黑" size="13px" weight="400" font-style="" opacity="1" y="10.55" transform="rotate(0)"><tspan id="SvgjsTspan1048" dy="16" x="54"><tspan id="SvgjsTspan1049" style="text-decoration:;">用户登录信息</tspan></tspan></text></g></g><g id="SvgjsG1050"><path id="SvgjsPath1051" d="M339 124.01249694824219L339 95.01249694824219L339 95.01249694824219L339 66.01249694824219" stroke="#323232" stroke-width="2" fill="none" marker-end="url(#SvgjsMarker1052)"></path><rect id="SvgjsRect1054" width="122" height="16" x="278" y="87.01249694824219" fill="#ffffff"></rect><text id="SvgjsText1055" font-family="微软雅黑" text-anchor="middle" font-size="13px" width="122px" fill="#323232" font-weight="400" align="top" anchor="middle" family="微软雅黑" size="13px" weight="400" font-style="" opacity="1" y="85.06249694824218" transform="rotate(0)"><tspan id="SvgjsTspan1056" dy="16" x="339"><tspan id="SvgjsTspan1057" style="text-decoration:;">用户/管理员登录信息</tspan></tspan></text></g><g id="SvgjsG1058"><path id="SvgjsPath1059" d="M389 159.0124969482422L529 159.0124969482422L529 159.0124969482422L669 159.0124969482422" stroke="#323232" stroke-width="2" fill="none" marker-end="url(#SvgjsMarker1060)"></path><rect id="SvgjsRect1062" width="78" height="16" x="490" y="151.0124969482422" fill="#ffffff"></rect><text id="SvgjsText1063" font-family="微软雅黑" text-anchor="middle" font-size="13px" width="78px" fill="#323232" font-weight="400" align="top" anchor="middle" family="微软雅黑" size="13px" weight="400" font-style="" opacity="1" y="149.0624969482422" transform="rotate(0)"><tspan id="SvgjsTspan1064" dy="16" x="529"><tspan id="SvgjsTspan1065" style="text-decoration:;">验证通过信息</tspan></tspan></text></g><g id="SvgjsG1066" transform="translate(289,327.0124969482422)"><path id="SvgjsPath1067" d="M 0 4Q 0 0 4 0L 96 0Q 100 0 100 4L 100 66Q 100 70 96 70L 4 70Q 0 70 0 66Z" stroke="rgba(50,50,50,1)" stroke-width="2" fill-opacity="1" fill="#ffffff"></path><g id="SvgjsG1068"><text id="SvgjsText1069" font-family="微软雅黑" text-anchor="middle" font-size="13px" width="80px" fill="#323232" font-weight="400" align="middle" anchor="middle" family="微软雅黑" size="13px" weight="400" font-style="" opacity="1" y="25.05" transform="rotate(0)"><tspan id="SvgjsTspan1070" dy="16" x="50"><tspan id="SvgjsTspan1071" style="text-decoration:;">用户注册</tspan></tspan></text></g></g><g id="SvgjsG1072"><path id="SvgjsPath1073" d="M86 194.0124969482422L86 362.0124969482422L289 362.0124969482422" stroke="#323232" stroke-width="2" fill="none" marker-end="url(#SvgjsMarker1074)"></path><rect id="SvgjsRect1076" width="52" height="16" x="77.5" y="354.01249694824213" fill="#ffffff"></rect><text id="SvgjsText1077" font-family="微软雅黑" text-anchor="middle" font-size="13px" width="52px" fill="#323232" font-weight="400" align="top" anchor="middle" family="微软雅黑" size="13px" weight="400" font-style="" opacity="1" y="352.06249694824214" transform="rotate(0)"><tspan id="SvgjsTspan1078" dy="16" x="103.5"><tspan id="SvgjsTspan1079" style="text-decoration:;">用户信息</tspan></tspan></text></g><g id="SvgjsG1080"><path id="SvgjsPath1081" d="M389 362.0124969482422L477.5 362.0124969482422L477.5 362.0124969482422L566 362.0124969482422" stroke="#323232" stroke-width="2" fill="none" marker-end="url(#SvgjsMarker1082)"></path><rect id="SvgjsRect1084" width="104" height="16" x="425.5" y="354.0124969482422" fill="#ffffff"></rect><text id="SvgjsText1085" font-family="微软雅黑" text-anchor="middle" font-size="13px" width="104px" fill="#323232" font-weight="400" align="top" anchor="middle" family="微软雅黑" size="13px" weight="400" font-style="" opacity="1" y="352.0624969482422" transform="rotate(0)"><tspan id="SvgjsTspan1086" dy="16" x="477.5"><tspan id="SvgjsTspan1087" style="text-decoration:;">生成用户账号信息</tspan></tspan></text></g><g id="SvgjsG1088" transform="translate(293,470.0124969482422)"><path id="SvgjsPath1089" d="M 0 4Q 0 0 4 0L 96 0Q 100 0 100 4L 100 66Q 100 70 96 70L 4 70Q 0 70 0 66Z" stroke="rgba(50,50,50,1)" stroke-width="2" fill-opacity="1" fill="#ffffff"></path><g id="SvgjsG1090"><text id="SvgjsText1091" font-family="微软雅黑" text-anchor="middle" font-size="13px" width="80px" fill="#323232" font-weight="400" align="middle" anchor="middle" family="微软雅黑" size="13px" weight="400" font-style="" opacity="1" y="25.05" transform="rotate(0)"><tspan id="SvgjsTspan1092" dy="16" x="50"><tspan id="SvgjsTspan1093" style="text-decoration:;">用户信息修改</tspan></tspan></text></g></g><g id="SvgjsG1094"><path id="SvgjsPath1095" d="M61 193.4124984741211L61 505.0124969482422L293 505.0124969482422" stroke="#323232" stroke-width="2" fill="none" marker-end="url(#SvgjsMarker1096)"></path><rect id="SvgjsRect1098" width="91" height="16" x="15.5" y="457.2124977111816" fill="#ffffff"></rect><text id="SvgjsText1099" font-family="微软雅黑" text-anchor="middle" font-size="13px" width="91px" fill="#323232" font-weight="400" align="top" anchor="middle" family="微软雅黑" size="13px" weight="400" font-style="" opacity="1" y="455.2624977111816" transform="rotate(0)"><tspan id="SvgjsTspan1100" dy="16" x="61"><tspan id="SvgjsTspan1101" style="text-decoration:;">需要修改的信息</tspan></tspan></text></g><g id="SvgjsG1102"><path id="SvgjsPath1103" d="M393 505.0124969482422L624 505.0124969482422L624 389.0124969482422" stroke="#323232" stroke-width="2" fill="none" marker-end="url(#SvgjsMarker1104)"></path><rect id="SvgjsRect1106" width="91" height="16" x="521" y="497.0124969482422" fill="#ffffff"></rect><text id="SvgjsText1107" font-family="微软雅黑" text-anchor="middle" font-size="13px" width="91px" fill="#323232" font-weight="400" align="top" anchor="middle" family="微软雅黑" size="13px" weight="400" font-style="" opacity="1" y="495.0624969482422" transform="rotate(0)"><tspan id="SvgjsTspan1108" dy="16" x="566.5"><tspan id="SvgjsTspan1109" style="text-decoration:;">需要修改的信息</tspan></tspan></text></g><g id="SvgjsG1110" transform="translate(36,36.012489318847656)"><path id="SvgjsPath1111" d="M 0 0L 100 0L 100 70L 0 70Z" stroke="rgba(50,50,50,1)" stroke-width="2" fill-opacity="1" fill="#ffffff"></path><g id="SvgjsG1112"><text id="SvgjsText1113" font-family="微软雅黑" text-anchor="middle" font-size="13px" width="80px" fill="#323232" font-weight="400" align="middle" anchor="middle" family="微软雅黑" size="13px" weight="400" font-style="" opacity="1" y="25.05" transform="rotate(0)"><tspan id="SvgjsTspan1114" dy="16" x="50"><tspan id="SvgjsTspan1115" style="text-decoration:;">管理员</tspan></tspan></text></g></g><g id="SvgjsG1116"><path id="SvgjsPath1117" d="M136 71.01248931884766L212.5 71.01248931884766L212.5 133.01248931884766L289 133.01248931884766" stroke="#323232" stroke-width="2" fill="none" marker-end="url(#SvgjsMarker1118)"></path><rect id="SvgjsRect1120" width="91" height="16" x="167" y="94.01248931884766" fill="#ffffff"></rect><text id="SvgjsText1121" font-family="微软雅黑" text-anchor="middle" font-size="13px" width="91px" fill="#323232" font-weight="400" align="top" anchor="middle" family="微软雅黑" size="13px" weight="400" font-style="" opacity="1" y="92.06248931884765" transform="rotate(0)"><tspan id="SvgjsTspan1122" dy="16" x="212.5"><tspan id="SvgjsTspan1123" style="text-decoration:;">管理员账号信息</tspan></tspan></text></g><g id="SvgjsG1124" transform="translate(570,197.01248931884766)"><path id="SvgjsPath1125" d="M 0 0L 94 0L 0 0M 0 43L 94 43L 0 43Z" stroke="rgba(50,50,50,1)" stroke-width="2" fill-opacity="1" fill="#ffffff"></path><path id="SvgjsPath1126" d="M 0 0L 94 0L 94 43L 0 43L 0 0Z" stroke="none" fill="none"></path><g id="SvgjsG1127"><text id="SvgjsText1128" font-family="微软雅黑" text-anchor="middle" font-size="13px" width="74px" fill="#323232" font-weight="400" align="middle" anchor="middle" family="微软雅黑" size="13px" weight="400" font-style="" opacity="1" y="3.55" transform="rotate(0)"><tspan id="SvgjsTspan1129" dy="16" x="47"><tspan id="SvgjsTspan1130" style="text-decoration:;">管理员信息</tspan></tspan><tspan id="SvgjsTspan1131" dy="16" x="47"><tspan id="SvgjsTspan1132" style="text-decoration:;">表</tspan></tspan></text></g></g><g id="SvgjsG1133"><path id="SvgjsPath1134" d="M570 217.01248931884766L363 217.01248931884766L363 194.01248931884766" stroke="#323232" stroke-width="2" fill="none" marker-end="url(#SvgjsMarker1135)"></path><rect id="SvgjsRect1137" width="65" height="16" x="422.5" y="209.01248931884766" fill="#ffffff"></rect><text id="SvgjsText1138" font-family="微软雅黑" text-anchor="middle" font-size="13px" width="65px" fill="#323232" font-weight="400" align="top" anchor="middle" family="微软雅黑" size="13px" weight="400" font-style="" opacity="1" y="207.06248931884767" transform="rotate(0)"><tspan id="SvgjsTspan1139" dy="16" x="455"><tspan id="SvgjsTspan1140" style="text-decoration:;">管理员信息</tspan></tspan></text></g></svg>