<svg id="SvgjsSvg1006" width="921.0124969482422" height="598.4000091552734" xmlns="http://www.w3.org/2000/svg" version="1.1" xmlns:xlink="http://www.w3.org/1999/xlink" xmlns:svgjs="http://svgjs.com/svgjs"><defs id="SvgjsDefs1007"><marker id="SvgjsMarker1040" markerWidth="16" markerHeight="12" refX="16" refY="6" viewBox="0 0 16 12" orient="auto" markerUnits="userSpaceOnUse" stroke-dasharray="0,0"><path id="SvgjsPath1041" d="M0,2 L14,6 L0,11 L0,2" fill="#323232" stroke="#323232" stroke-width="2"></path></marker><marker id="SvgjsMarker1048" markerWidth="16" markerHeight="12" refX="16" refY="6" viewBox="0 0 16 12" orient="auto" markerUnits="userSpaceOnUse" stroke-dasharray="0,0"><path id="SvgjsPath1049" d="M0,2 L14,6 L0,11 L0,2" fill="#323232" stroke="#323232" stroke-width="2"></path></marker><marker id="SvgjsMarker1056" markerWidth="16" markerHeight="12" refX="16" refY="6" viewBox="0 0 16 12" orient="auto" markerUnits="userSpaceOnUse" stroke-dasharray="0,0"><path id="SvgjsPath1057" d="M0,2 L14,6 L0,11 L0,2" fill="#323232" stroke="#323232" stroke-width="2"></path></marker><marker id="SvgjsMarker1064" markerWidth="16" markerHeight="12" refX="16" refY="6" viewBox="0 0 16 12" orient="auto" markerUnits="userSpaceOnUse" stroke-dasharray="0,0"><path id="SvgjsPath1065" d="M0,2 L14,6 L0,11 L0,2" fill="#323232" stroke="#323232" stroke-width="2"></path></marker><marker id="SvgjsMarker1072" markerWidth="16" markerHeight="12" refX="16" refY="6" viewBox="0 0 16 12" orient="auto" markerUnits="userSpaceOnUse" stroke-dasharray="0,0"><path id="SvgjsPath1073" d="M0,2 L14,6 L0,11 L0,2" fill="#323232" stroke="#323232" stroke-width="2"></path></marker><marker id="SvgjsMarker1080" markerWidth="16" markerHeight="12" refX="16" refY="6" viewBox="0 0 16 12" orient="auto" markerUnits="userSpaceOnUse" stroke-dasharray="0,0"><path id="SvgjsPath1081" d="M0,2 L14,6 L0,11 L0,2" fill="#323232" stroke="#323232" stroke-width="2"></path></marker><marker id="SvgjsMarker1088" markerWidth="16" markerHeight="12" refX="16" refY="6" viewBox="0 0 16 12" orient="auto" markerUnits="userSpaceOnUse" stroke-dasharray="0,0"><path id="SvgjsPath1089" d="M0,2 L14,6 L0,11 L0,2" fill="#323232" stroke="#323232" stroke-width="2"></path></marker><marker id="SvgjsMarker1096" markerWidth="16" markerHeight="12" refX="16" refY="6" viewBox="0 0 16 12" orient="auto" markerUnits="userSpaceOnUse" stroke-dasharray="0,0"><path id="SvgjsPath1097" d="M0,2 L14,6 L0,11 L0,2" fill="#323232" stroke="#323232" stroke-width="2"></path></marker><marker id="SvgjsMarker1111" markerWidth="16" markerHeight="12" refX="16" refY="6" viewBox="0 0 16 12" orient="auto" markerUnits="userSpaceOnUse" stroke-dasharray="0,0"><path id="SvgjsPath1112" d="M0,2 L14,6 L0,11 L0,2" fill="#323232" stroke="#323232" stroke-width="2"></path></marker><marker id="SvgjsMarker1126" markerWidth="16" markerHeight="12" refX="16" refY="6" viewBox="0 0 16 12" orient="auto" markerUnits="userSpaceOnUse" stroke-dasharray="0,0"><path id="SvgjsPath1127" d="M0,2 L14,6 L0,11 L0,2" fill="#323232" stroke="#323232" stroke-width="2"></path></marker><marker id="SvgjsMarker1141" markerWidth="16" markerHeight="12" refX="16" refY="6" viewBox="0 0 16 12" orient="auto" markerUnits="userSpaceOnUse" stroke-dasharray="0,0"><path id="SvgjsPath1142" d="M0,2 L14,6 L0,11 L0,2" fill="#323232" stroke="#323232" stroke-width="2"></path></marker><marker id="SvgjsMarker1156" markerWidth="16" markerHeight="12" refX="16" refY="6" viewBox="0 0 16 12" orient="auto" markerUnits="userSpaceOnUse" stroke-dasharray="0,0"><path id="SvgjsPath1157" d="M0,2 L14,6 L0,11 L0,2" fill="#323232" stroke="#323232" stroke-width="2"></path></marker><marker id="SvgjsMarker1178" markerWidth="16" markerHeight="12" refX="16" refY="6" viewBox="0 0 16 12" orient="auto" markerUnits="userSpaceOnUse" stroke-dasharray="0,0"><path id="SvgjsPath1179" d="M0,2 L14,6 L0,11 L0,2" fill="#323232" stroke="#323232" stroke-width="2"></path></marker><marker id="SvgjsMarker1186" markerWidth="16" markerHeight="12" refX="16" refY="6" viewBox="0 0 16 12" orient="auto" markerUnits="userSpaceOnUse" stroke-dasharray="0,0"><path id="SvgjsPath1187" d="M0,2 L14,6 L0,11 L0,2" fill="#323232" stroke="#323232" stroke-width="2"></path></marker><marker id="SvgjsMarker1201" markerWidth="16" markerHeight="12" refX="16" refY="6" viewBox="0 0 16 12" orient="auto" markerUnits="userSpaceOnUse" stroke-dasharray="0,0"><path id="SvgjsPath1202" d="M0,2 L14,6 L0,11 L0,2" fill="#323232" stroke="#323232" stroke-width="2"></path></marker></defs><g id="SvgjsG1008" transform="translate(25.012496948242188,193.79999542236328)"><path id="SvgjsPath1009" d="M 0 0L 100 0L 100 70L 0 70Z" stroke="rgba(50,50,50,1)" stroke-width="2" fill-opacity="1" fill="#ffffff"></path><g id="SvgjsG1010"><text id="SvgjsText1011" font-family="微软雅黑" text-anchor="middle" font-size="13px" width="80px" fill="#323232" font-weight="400" align="middle" anchor="middle" family="微软雅黑" size="13px" weight="400" font-style="" opacity="1" y="25.05" transform="rotate(0)"><tspan id="SvgjsTspan1012" dy="16" x="50"><tspan id="SvgjsTspan1013" style="text-decoration:;">已登录用户A</tspan></tspan></text></g></g><g id="SvgjsG1014" transform="translate(362.0124969482422,24.999996185302734)"><path id="SvgjsPath1015" d="M 0 4Q 0 0 4 0L 96 0Q 100 0 100 4L 100 66Q 100 70 96 70L 4 70Q 0 70 0 66Z" stroke="rgba(50,50,50,1)" stroke-width="2" fill-opacity="1" fill="#ffffff"></path><g id="SvgjsG1016"><text id="SvgjsText1017" font-family="微软雅黑" text-anchor="middle" font-size="13px" width="80px" fill="#323232" font-weight="400" align="middle" anchor="middle" family="微软雅黑" size="13px" weight="400" font-style="" opacity="1" y="25.05" transform="rotate(0)"><tspan id="SvgjsTspan1018" dy="16" x="50"><tspan id="SvgjsTspan1019" style="text-decoration:;">上传视频</tspan></tspan></text></g></g><g id="SvgjsG1020" transform="translate(362.0124969482422,132.99999618530273)"><path id="SvgjsPath1021" d="M 0 4Q 0 0 4 0L 96 0Q 100 0 100 4L 100 66Q 100 70 96 70L 4 70Q 0 70 0 66Z" stroke="rgba(50,50,50,1)" stroke-width="2" fill-opacity="1" fill="#ffffff"></path><g id="SvgjsG1022"><text id="SvgjsText1023" font-family="微软雅黑" text-anchor="middle" font-size="13px" width="80px" fill="#323232" font-weight="400" align="middle" anchor="middle" family="微软雅黑" size="13px" weight="400" font-style="" opacity="1" y="25.05" transform="rotate(0)"><tspan id="SvgjsTspan1024" dy="16" x="50"><tspan id="SvgjsTspan1025" style="text-decoration:;">上传专栏</tspan></tspan></text></g></g><g id="SvgjsG1026" transform="translate(362.0124969482422,248.99999618530273)"><path id="SvgjsPath1027" d="M 0 4Q 0 0 4 0L 96 0Q 100 0 100 4L 100 66Q 100 70 96 70L 4 70Q 0 70 0 66Z" stroke="rgba(50,50,50,1)" stroke-width="2" fill-opacity="1" fill="#ffffff"></path><g id="SvgjsG1028"><text id="SvgjsText1029" font-family="微软雅黑" text-anchor="middle" font-size="13px" width="80px" fill="#323232" font-weight="400" align="middle" anchor="middle" family="微软雅黑" size="13px" weight="400" font-style="" opacity="1" y="25.05" transform="rotate(0)"><tspan id="SvgjsTspan1030" dy="16" x="50"><tspan id="SvgjsTspan1031" style="text-decoration:;">发布动态</tspan></tspan></text></g></g><g id="SvgjsG1032" transform="translate(438.0124969482422,366.1999969482422)"><path id="SvgjsPath1033" d="M 0 4Q 0 0 4 0L 96 0Q 100 0 100 4L 100 66Q 100 70 96 70L 4 70Q 0 70 0 66Z" stroke="rgba(50,50,50,1)" stroke-width="2" fill-opacity="1" fill="#ffffff"></path><g id="SvgjsG1034"><text id="SvgjsText1035" font-family="微软雅黑" text-anchor="middle" font-size="13px" width="80px" fill="#323232" font-weight="400" align="middle" anchor="middle" family="微软雅黑" size="13px" weight="400" font-style="" opacity="1" y="25.05" transform="rotate(0)"><tspan id="SvgjsTspan1036" dy="16" x="50"><tspan id="SvgjsTspan1037" style="text-decoration:;">发表评论</tspan></tspan></text></g></g><g id="SvgjsG1038"><path id="SvgjsPath1039" d="M41.01249694824219 194.1999969482422L41.01249694824219 38.19999694824219L362.0124969482422 38.19999694824219" stroke="#323232" stroke-width="2" fill="none" marker-end="url(#SvgjsMarker1040)"></path><rect id="SvgjsRect1042" width="91" height="16" x="78.01249694824217" y="30.199996948242188" fill="#ffffff"></rect><text id="SvgjsText1043" font-family="微软雅黑" text-anchor="middle" font-size="13px" width="91px" fill="#323232" font-weight="400" align="top" anchor="middle" family="微软雅黑" size="13px" weight="400" font-style="" opacity="1" y="28.249996948242188" transform="rotate(0)"><tspan id="SvgjsTspan1044" dy="16" x="123.51249694824217"><tspan id="SvgjsTspan1045" style="text-decoration:;">上传的视频信息</tspan></tspan></text></g><g id="SvgjsG1046"><path id="SvgjsPath1047" d="M362.0124969482422 59.999996185302734L64.01249694824219 59.999996185302734L64.01249694824219 194.1999969482422" stroke="#323232" stroke-width="2" fill="none" marker-end="url(#SvgjsMarker1048)"></path><rect id="SvgjsRect1050" width="130" height="16" x="80.91249656677243" y="51.999996185302734" fill="#ffffff"></rect><text id="SvgjsText1051" font-family="微软雅黑" text-anchor="middle" font-size="13px" width="130px" fill="#323232" font-weight="400" align="top" anchor="middle" family="微软雅黑" size="13px" weight="400" font-style="" opacity="1" y="50.04999618530273" transform="rotate(0)"><tspan id="SvgjsTspan1052" dy="16" x="145.91249656677243"><tspan id="SvgjsTspan1053" style="text-decoration:;">已上传成功的视频信息</tspan></tspan></text></g><g id="SvgjsG1054"><path id="SvgjsPath1055" d="M93.01249694824219 194.1999969482422L93.01249694824219 139.5486199192328L362.99727574060915 139.5486199192328" stroke="#323232" stroke-width="2" fill="none" marker-end="url(#SvgjsMarker1056)"></path><rect id="SvgjsRect1058" width="91" height="16" x="155.17919782992098" y="131.5486199192328" fill="#ffffff"></rect><text id="SvgjsText1059" font-family="微软雅黑" text-anchor="middle" font-size="13px" width="91px" fill="#323232" font-weight="400" align="top" anchor="middle" family="微软雅黑" size="13px" weight="400" font-style="" opacity="1" y="129.59861991923282" transform="rotate(0)"><tspan id="SvgjsTspan1060" dy="16" x="200.67919782992098"><tspan id="SvgjsTspan1061" style="text-decoration:;">上传的专栏信息</tspan></tspan></text></g><g id="SvgjsG1062"><path id="SvgjsPath1063" d="M362.0124969482422 167.99999618530273L109.01249694824219 167.99999618530273L109.01249694824219 194.1999969482422" stroke="#323232" stroke-width="2" fill="none" marker-end="url(#SvgjsMarker1064)"></path><rect id="SvgjsRect1066" width="117" height="16" x="163.91249656677246" y="159.99999618530273" fill="#ffffff"></rect><text id="SvgjsText1067" font-family="微软雅黑" text-anchor="middle" font-size="13px" width="117px" fill="#323232" font-weight="400" align="top" anchor="middle" family="微软雅黑" size="13px" weight="400" font-style="" opacity="1" y="158.04999618530275" transform="rotate(0)"><tspan id="SvgjsTspan1068" dy="16" x="222.41249656677246"><tspan id="SvgjsTspan1069" style="text-decoration:;">已成功上传专栏信息</tspan></tspan></text></g><g id="SvgjsG1070"><path id="SvgjsPath1071" d="M125.01249694824219 206.1999969482422L243.5124969482422 206.1999969482422L243.5124969482422 268.1999969482422L362.0124969482422 268.1999969482422" stroke="#323232" stroke-width="2" fill="none" marker-end="url(#SvgjsMarker1072)"></path><rect id="SvgjsRect1074" width="91" height="16" x="198.0124969482422" y="229.1999969482422" fill="#ffffff"></rect><text id="SvgjsText1075" font-family="微软雅黑" text-anchor="middle" font-size="13px" width="91px" fill="#323232" font-weight="400" align="top" anchor="middle" family="微软雅黑" size="13px" weight="400" font-style="" opacity="1" y="227.2499969482422" transform="rotate(0)"><tspan id="SvgjsTspan1076" dy="16" x="243.5124969482422"><tspan id="SvgjsTspan1077" style="text-decoration:;">发布的动态信息</tspan></tspan></text></g><g id="SvgjsG1078"><path id="SvgjsPath1079" d="M362.0124969482422 303.1999969482422L116.92534120549453 303.1999969482422L116.92534120549453 262.20380225015043" stroke="#323232" stroke-width="2" fill="none" marker-end="url(#SvgjsMarker1080)"></path><rect id="SvgjsRect1082" width="130" height="16" x="153.97082172782248" y="295.1999969482422" fill="#ffffff"></rect><text id="SvgjsText1083" font-family="微软雅黑" text-anchor="middle" font-size="13px" width="130px" fill="#323232" font-weight="400" align="top" anchor="middle" family="微软雅黑" size="13px" weight="400" font-style="" opacity="1" y="293.2499969482422" transform="rotate(0)"><tspan id="SvgjsTspan1084" dy="16" x="218.97082172782248"><tspan id="SvgjsTspan1085" style="text-decoration:;">已成功发布的动态信息</tspan></tspan></text></g><g id="SvgjsG1086"><path id="SvgjsPath1087" d="M92.01249694824219 263.1999969482422L92.01249694824219 386.1999969482422L438.0124969482422 386.1999969482422" stroke="#323232" stroke-width="2" fill="none" marker-end="url(#SvgjsMarker1088)"></path><rect id="SvgjsRect1090" width="247" height="16" x="80.01249694824219" y="378.1999969482422" fill="#ffffff"></rect><text id="SvgjsText1091" font-family="微软雅黑" text-anchor="middle" font-size="13px" width="247px" fill="#323232" font-weight="400" align="top" anchor="middle" family="微软雅黑" size="13px" weight="400" font-style="" opacity="1" y="376.2499969482422" transform="rotate(0)"><tspan id="SvgjsTspan1092" dy="16" x="203.5124969482422"><tspan id="SvgjsTspan1093" style="text-decoration:;">对专栏、视频、动态、番剧进行评论的信息</tspan></tspan></text></g><g id="SvgjsG1094"><path id="SvgjsPath1095" d="M438.0124969482422 421.1999969482422L52.01249694824219 421.1999969482422L52.01249694824219 263.1999969482422" stroke="#323232" stroke-width="2" fill="none" marker-end="url(#SvgjsMarker1096)"></path><rect id="SvgjsRect1098" width="117" height="16" x="107.51249694824219" y="413.1999969482422" fill="#ffffff"></rect><text id="SvgjsText1099" font-family="微软雅黑" text-anchor="middle" font-size="13px" width="117px" fill="#323232" font-weight="400" align="top" anchor="middle" family="微软雅黑" size="13px" weight="400" font-style="" opacity="1" y="411.2499969482422" transform="rotate(0)"><tspan id="SvgjsTspan1100" dy="16" x="166.0124969482422"><tspan id="SvgjsTspan1101" style="text-decoration:;">成功发表的评论信息</tspan></tspan></text></g><g id="SvgjsG1102" transform="translate(760.0124969482422,24.999996185302734)"><path id="SvgjsPath1103" d="M 0 0L 101 0L 0 0M 0 26L 101 26L 0 26Z" stroke="rgba(50,50,50,1)" stroke-width="2" fill-opacity="1" fill="#ffffff"></path><path id="SvgjsPath1104" d="M 0 0L 101 0L 101 26L 0 26L 0 0Z" stroke="none" fill="none"></path><g id="SvgjsG1105"><text id="SvgjsText1106" font-family="微软雅黑" text-anchor="middle" font-size="13px" width="81px" fill="#323232" font-weight="400" align="middle" anchor="middle" family="微软雅黑" size="13px" weight="400" font-style="" opacity="1" y="3.05" transform="rotate(0)"><tspan id="SvgjsTspan1107" dy="16" x="50.5"><tspan id="SvgjsTspan1108" style="text-decoration:;">视频信息表</tspan></tspan></text></g></g><g id="SvgjsG1109"><path id="SvgjsPath1110" d="M460.0124969482422 41.19999694824219L610.3617285002069 41.19999694824219L610.3617285002069 42.089894705734935L760.7109600521717 42.089894705734935" stroke="#323232" stroke-width="2" fill="none" marker-end="url(#SvgjsMarker1111)"></path><rect id="SvgjsRect1113" width="91" height="16" x="564.8617285002069" y="33.64494582698856" fill="#ffffff"></rect><text id="SvgjsText1114" font-family="微软雅黑" text-anchor="middle" font-size="13px" width="91px" fill="#323232" font-weight="400" align="top" anchor="middle" family="微软雅黑" size="13px" weight="400" font-style="" opacity="1" y="31.694945826988562" transform="rotate(0)"><tspan id="SvgjsTspan1115" dy="16" x="610.3617285002069"><tspan id="SvgjsTspan1116" style="text-decoration:;">上传的视频信息</tspan></tspan></text></g><g id="SvgjsG1117" transform="translate(756.0124969482422,137.1999969482422)"><path id="SvgjsPath1118" d="M 0 0L 101 0L 0 0M 0 26L 101 26L 0 26Z" stroke="rgba(50,50,50,1)" stroke-width="2" fill-opacity="1" fill="#ffffff"></path><path id="SvgjsPath1119" d="M 0 0L 101 0L 101 26L 0 26L 0 0Z" stroke="none" fill="none"></path><g id="SvgjsG1120"><text id="SvgjsText1121" font-family="微软雅黑" text-anchor="middle" font-size="13px" width="81px" fill="#323232" font-weight="400" align="middle" anchor="middle" family="微软雅黑" size="13px" weight="400" font-style="" opacity="1" y="3.05" transform="rotate(0)"><tspan id="SvgjsTspan1122" dy="16" x="50.5"><tspan id="SvgjsTspan1123" style="text-decoration:;">专栏信息表</tspan></tspan></text></g></g><g id="SvgjsG1124"><path id="SvgjsPath1125" d="M462.0124969482422 151.1999969482422L609.0124969482422 151.1999969482422L609.0124969482422 150.99999618530273L756.0124969482422 150.99999618530273" stroke="#323232" stroke-width="2" fill="none" marker-end="url(#SvgjsMarker1126)"></path><rect id="SvgjsRect1128" width="91" height="16" x="563.5124969482422" y="143.09999656677246" fill="#ffffff"></rect><text id="SvgjsText1129" font-family="微软雅黑" text-anchor="middle" font-size="13px" width="91px" fill="#323232" font-weight="400" align="top" anchor="middle" family="微软雅黑" size="13px" weight="400" font-style="" opacity="1" y="141.14999656677247" transform="rotate(0)"><tspan id="SvgjsTspan1130" dy="16" x="609.0124969482422"><tspan id="SvgjsTspan1131" style="text-decoration:;">上传的专栏信息</tspan></tspan></text></g><g id="SvgjsG1132" transform="translate(765.0124969482422,248.99999618530273)"><path id="SvgjsPath1133" d="M 0 0L 101 0L 0 0M 0 26L 101 26L 0 26Z" stroke="rgba(50,50,50,1)" stroke-width="2" fill-opacity="1" fill="#ffffff"></path><path id="SvgjsPath1134" d="M 0 0L 101 0L 101 26L 0 26L 0 0Z" stroke="none" fill="none"></path><g id="SvgjsG1135"><text id="SvgjsText1136" font-family="微软雅黑" text-anchor="middle" font-size="13px" width="81px" fill="#323232" font-weight="400" align="middle" anchor="middle" family="微软雅黑" size="13px" weight="400" font-style="" opacity="1" y="3.05" transform="rotate(0)"><tspan id="SvgjsTspan1137" dy="16" x="50.5"><tspan id="SvgjsTspan1138" style="text-decoration:;">动态信息表</tspan></tspan></text></g></g><g id="SvgjsG1139"><path id="SvgjsPath1140" d="M461.0124969482422 257.3999938964844L613.0124969482422 257.3999938964844L613.0124969482422 257.39999771118164L765.0124969482422 257.39999771118164" stroke="#323232" stroke-width="2" fill="none" marker-end="url(#SvgjsMarker1141)"></path><rect id="SvgjsRect1143" width="91" height="16" x="567.5124969482422" y="249.399995803833" fill="#ffffff"></rect><text id="SvgjsText1144" font-family="微软雅黑" text-anchor="middle" font-size="13px" width="91px" fill="#323232" font-weight="400" align="top" anchor="middle" family="微软雅黑" size="13px" weight="400" font-style="" opacity="1" y="247.44999580383302" transform="rotate(0)"><tspan id="SvgjsTspan1145" dy="16" x="613.0124969482422"><tspan id="SvgjsTspan1146" style="text-decoration:;">发布的动态信息</tspan></tspan></text></g><g id="SvgjsG1147" transform="translate(785.0124969482422,370.1999969482422)"><path id="SvgjsPath1148" d="M 0 0L 111 0L 0 0M 0 30L 111 30L 0 30Z" stroke="rgba(50,50,50,1)" stroke-width="2" fill-opacity="1" fill="#ffffff"></path><path id="SvgjsPath1149" d="M 0 0L 111 0L 111 30L 0 30L 0 0Z" stroke="none" fill="none"></path><g id="SvgjsG1150"><text id="SvgjsText1151" font-family="微软雅黑" text-anchor="middle" font-size="13px" width="91px" fill="#323232" font-weight="400" align="middle" anchor="middle" family="微软雅黑" size="13px" weight="400" font-style="" opacity="1" y="5.05" transform="rotate(0)"><tspan id="SvgjsTspan1152" dy="16" x="55.5"><tspan id="SvgjsTspan1153" style="text-decoration:;">评论信息表</tspan></tspan></text></g></g><g id="SvgjsG1154"><path id="SvgjsPath1155" d="M537.0124969482422 386.3999938964844L661.0124969482422 386.3999938964844L661.0124969482422 385.3999938964844L785.0124969482422 385.3999938964844" stroke="#323232" stroke-width="2" fill="none" marker-end="url(#SvgjsMarker1156)"></path><rect id="SvgjsRect1158" width="91" height="16" x="615.5124969482422" y="377.8999938964844" fill="#ffffff"></rect><text id="SvgjsText1159" font-family="微软雅黑" text-anchor="middle" font-size="13px" width="91px" fill="#323232" font-weight="400" align="top" anchor="middle" family="微软雅黑" size="13px" weight="400" font-style="" opacity="1" y="375.9499938964844" transform="rotate(0)"><tspan id="SvgjsTspan1160" dy="16" x="661.0124969482422"><tspan id="SvgjsTspan1161" style="text-decoration:;">发表的评论信息</tspan></tspan></text></g><g id="SvgjsG1162" transform="translate(25.012496948242188,503.3999938964844)"><path id="SvgjsPath1163" d="M 0 0L 100 0L 100 70L 0 70Z" stroke="rgba(50,50,50,1)" stroke-width="2" fill-opacity="1" fill="#ffffff"></path><g id="SvgjsG1164"><text id="SvgjsText1165" font-family="微软雅黑" text-anchor="middle" font-size="13px" width="80px" fill="#323232" font-weight="400" align="middle" anchor="middle" family="微软雅黑" size="13px" weight="400" font-style="" opacity="1" y="17.05" transform="rotate(0)"><tspan id="SvgjsTspan1166" dy="16" x="50"><tspan id="SvgjsTspan1167" style="text-decoration:;">已登录的管理</tspan></tspan><tspan id="SvgjsTspan1168" dy="16" x="50"><tspan id="SvgjsTspan1169" style="text-decoration:;">员A</tspan></tspan></text></g></g><g id="SvgjsG1170" transform="translate(372.0124969482422,503.3999938964844)"><path id="SvgjsPath1171" d="M 0 4Q 0 0 4 0L 96 0Q 100 0 100 4L 100 66Q 100 70 96 70L 4 70Q 0 70 0 66Z" stroke="rgba(50,50,50,1)" stroke-width="2" fill-opacity="1" fill="#ffffff"></path><g id="SvgjsG1172"><text id="SvgjsText1173" font-family="微软雅黑" text-anchor="middle" font-size="13px" width="80px" fill="#323232" font-weight="400" align="middle" anchor="middle" family="微软雅黑" size="13px" weight="400" font-style="" opacity="1" y="25.05" transform="rotate(0)"><tspan id="SvgjsTspan1174" dy="16" x="50"><tspan id="SvgjsTspan1175" style="text-decoration:;">上传番剧</tspan></tspan></text></g></g><g id="SvgjsG1176"><path id="SvgjsPath1177" d="M124.01249694824219 523.3999938964844L248.0124969482422 523.3999938964844L248.0124969482422 520.3999938964844L372.0124969482422 520.3999938964844" stroke="#323232" stroke-width="2" fill="none" marker-end="url(#SvgjsMarker1178)"></path><rect id="SvgjsRect1180" width="91" height="16" x="202.5124969482422" y="513.8999938964844" fill="#ffffff"></rect><text id="SvgjsText1181" font-family="微软雅黑" text-anchor="middle" font-size="13px" width="91px" fill="#323232" font-weight="400" align="top" anchor="middle" family="微软雅黑" size="13px" weight="400" font-style="" opacity="1" y="511.9499938964844" transform="rotate(0)"><tspan id="SvgjsTspan1182" dy="16" x="248.0124969482422"><tspan id="SvgjsTspan1183" style="text-decoration:;">上传的番剧信息</tspan></tspan></text></g><g id="SvgjsG1184"><path id="SvgjsPath1185" d="M372.951727960291 562.7054011858166L248.4821124542666 562.7054011858166L248.4821124542666 557.3999938964844L124.01249694824219 557.3999938964844" stroke="#323232" stroke-width="2" fill="none" marker-end="url(#SvgjsMarker1186)"></path><rect id="SvgjsRect1188" width="130" height="16" x="183.4821124542666" y="552.0526975411506" fill="#ffffff"></rect><text id="SvgjsText1189" font-family="微软雅黑" text-anchor="middle" font-size="13px" width="130px" fill="#323232" font-weight="400" align="top" anchor="middle" family="微软雅黑" size="13px" weight="400" font-style="" opacity="1" y="550.1026975411505" transform="rotate(0)"><tspan id="SvgjsTspan1190" dy="16" x="248.4821124542666"><tspan id="SvgjsTspan1191" style="text-decoration:;">已成功上传的番剧信息</tspan></tspan></text></g><g id="SvgjsG1192" transform="translate(778.0124969482422,513.3999938964844)"><path id="SvgjsPath1193" d="M 0 0L 111 0L 0 0M 0 30L 111 30L 0 30Z" stroke="rgba(50,50,50,1)" stroke-width="2" fill-opacity="1" fill="#ffffff"></path><path id="SvgjsPath1194" d="M 0 0L 111 0L 111 30L 0 30L 0 0Z" stroke="none" fill="none"></path><g id="SvgjsG1195"><text id="SvgjsText1196" font-family="微软雅黑" text-anchor="middle" font-size="13px" width="91px" fill="#323232" font-weight="400" align="middle" anchor="middle" family="微软雅黑" size="13px" weight="400" font-style="" opacity="1" y="5.05" transform="rotate(0)"><tspan id="SvgjsTspan1197" dy="16" x="55.5"><tspan id="SvgjsTspan1198" style="text-decoration:;">番剧信息表</tspan></tspan></text></g></g><g id="SvgjsG1199"><path id="SvgjsPath1200" d="M470.0124969482422 526.3999938964844L624.0124969482422 526.3999938964844L624.0124969482422 524.3999938964844L778.0124969482422 524.3999938964844" stroke="#323232" stroke-width="2" fill="none" marker-end="url(#SvgjsMarker1201)"></path><rect id="SvgjsRect1203" width="91" height="16" x="578.5124969482422" y="517.3999938964844" fill="#ffffff"></rect><text id="SvgjsText1204" font-family="微软雅黑" text-anchor="middle" font-size="13px" width="91px" fill="#323232" font-weight="400" align="top" anchor="middle" family="微软雅黑" size="13px" weight="400" font-style="" opacity="1" y="515.4499938964843" transform="rotate(0)"><tspan id="SvgjsTspan1205" dy="16" x="624.0124969482422"><tspan id="SvgjsTspan1206" style="text-decoration:;">上传的番剧信息</tspan></tspan></text></g></svg>