<svg id="SvgjsSvg1006" width="1045.5" height="593.4000244140625" xmlns="http://www.w3.org/2000/svg" version="1.1" xmlns:xlink="http://www.w3.org/1999/xlink" xmlns:svgjs="http://svgjs.com/svgjs"><defs id="SvgjsDefs1007"><marker id="SvgjsMarker1028" markerWidth="16" markerHeight="12" refX="16" refY="6" viewBox="0 0 16 12" orient="auto" markerUnits="userSpaceOnUse" stroke-dasharray="0,0"><path id="SvgjsPath1029" d="M0,2 L14,6 L0,11 L0,2" fill="#323232" stroke="#323232" stroke-width="2"></path></marker><marker id="SvgjsMarker1092" markerWidth="16" markerHeight="12" refX="16" refY="6" viewBox="0 0 16 12" orient="auto" markerUnits="userSpaceOnUse" stroke-dasharray="0,0"><path id="SvgjsPath1093" d="M0,2 L14,6 L0,11 L0,2" fill="#323232" stroke="#323232" stroke-width="2"></path></marker><marker id="SvgjsMarker1100" markerWidth="16" markerHeight="12" refX="16" refY="6" viewBox="0 0 16 12" orient="auto" markerUnits="userSpaceOnUse" stroke-dasharray="0,0"><path id="SvgjsPath1101" d="M0,2 L14,6 L0,11 L0,2" fill="#323232" stroke="#323232" stroke-width="2"></path></marker><marker id="SvgjsMarker1108" markerWidth="16" markerHeight="12" refX="16" refY="6" viewBox="0 0 16 12" orient="auto" markerUnits="userSpaceOnUse" stroke-dasharray="0,0"><path id="SvgjsPath1109" d="M0,2 L14,6 L0,11 L0,2" fill="#323232" stroke="#323232" stroke-width="2"></path></marker><marker id="SvgjsMarker1116" markerWidth="16" markerHeight="12" refX="16" refY="6" viewBox="0 0 16 12" orient="auto" markerUnits="userSpaceOnUse" stroke-dasharray="0,0"><path id="SvgjsPath1117" d="M0,2 L14,6 L0,11 L0,2" fill="#323232" stroke="#323232" stroke-width="2"></path></marker><marker id="SvgjsMarker1124" markerWidth="16" markerHeight="12" refX="16" refY="6" viewBox="0 0 16 12" orient="auto" markerUnits="userSpaceOnUse" stroke-dasharray="0,0"><path id="SvgjsPath1125" d="M0,2 L14,6 L0,11 L0,2" fill="#323232" stroke="#323232" stroke-width="2"></path></marker><marker id="SvgjsMarker1132" markerWidth="16" markerHeight="12" refX="16" refY="6" viewBox="0 0 16 12" orient="auto" markerUnits="userSpaceOnUse" stroke-dasharray="0,0"><path id="SvgjsPath1133" d="M0,2 L14,6 L0,11 L0,2" fill="#323232" stroke="#323232" stroke-width="2"></path></marker><marker id="SvgjsMarker1140" markerWidth="16" markerHeight="12" refX="16" refY="6" viewBox="0 0 16 12" orient="auto" markerUnits="userSpaceOnUse" stroke-dasharray="0,0"><path id="SvgjsPath1141" d="M0,2 L14,6 L0,11 L0,2" fill="#323232" stroke="#323232" stroke-width="2"></path></marker><marker id="SvgjsMarker1148" markerWidth="16" markerHeight="12" refX="16" refY="6" viewBox="0 0 16 12" orient="auto" markerUnits="userSpaceOnUse" stroke-dasharray="0,0"><path id="SvgjsPath1149" d="M0,2 L14,6 L0,11 L0,2" fill="#323232" stroke="#323232" stroke-width="2"></path></marker><marker id="SvgjsMarker1162" markerWidth="16" markerHeight="12" refX="16" refY="6" viewBox="0 0 16 12" orient="auto" markerUnits="userSpaceOnUse" stroke-dasharray="0,0"><path id="SvgjsPath1163" d="M0,2 L14,6 L0,11 L0,2" fill="#323232" stroke="#323232" stroke-width="2"></path></marker><marker id="SvgjsMarker1170" markerWidth="16" markerHeight="12" refX="16" refY="6" viewBox="0 0 16 12" orient="auto" markerUnits="userSpaceOnUse" stroke-dasharray="0,0"><path id="SvgjsPath1171" d="M0,2 L14,6 L0,11 L0,2" fill="#323232" stroke="#323232" stroke-width="2"></path></marker><marker id="SvgjsMarker1178" markerWidth="16" markerHeight="12" refX="16" refY="6" viewBox="0 0 16 12" orient="auto" markerUnits="userSpaceOnUse" stroke-dasharray="0,0"><path id="SvgjsPath1179" d="M0,2 L14,6 L0,11 L0,2" fill="#323232" stroke="#323232" stroke-width="2"></path></marker><marker id="SvgjsMarker1186" markerWidth="16" markerHeight="12" refX="16" refY="6" viewBox="0 0 16 12" orient="auto" markerUnits="userSpaceOnUse" stroke-dasharray="0,0"><path id="SvgjsPath1187" d="M0,2 L14,6 L0,11 L0,2" fill="#323232" stroke="#323232" stroke-width="2"></path></marker><marker id="SvgjsMarker1194" markerWidth="16" markerHeight="12" refX="16" refY="6" viewBox="0 0 16 12" orient="auto" markerUnits="userSpaceOnUse" stroke-dasharray="0,0"><path id="SvgjsPath1195" d="M0,2 L14,6 L0,11 L0,2" fill="#323232" stroke="#323232" stroke-width="2"></path></marker></defs><g id="SvgjsG1008" transform="translate(32.5,146)"><path id="SvgjsPath1009" d="M 0 0L 100 0L 100 70L 0 70Z" stroke="rgba(50,50,50,1)" stroke-width="2" fill-opacity="1" fill="#ffffff"></path><g id="SvgjsG1010"><text id="SvgjsText1011" font-family="微软雅黑" text-anchor="middle" font-size="13px" width="80px" fill="#323232" font-weight="400" align="middle" anchor="middle" family="微软雅黑" size="13px" weight="400" font-style="" opacity="1" y="17.05" transform="rotate(0)"><tspan id="SvgjsTspan1012" dy="16" x="50"><tspan id="SvgjsTspan1013" style="text-decoration:;">已登录的管理</tspan></tspan><tspan id="SvgjsTspan1014" dy="16" x="50"><tspan id="SvgjsTspan1015" style="text-decoration:;">员A</tspan></tspan></text></g></g><g id="SvgjsG1016" transform="translate(399.5,161)"><path id="SvgjsPath1017" d="M 0 4Q 0 0 4 0L 96 0Q 100 0 100 4L 100 66Q 100 70 96 70L 4 70Q 0 70 0 66Z" stroke="rgba(50,50,50,1)" stroke-width="2" fill-opacity="1" fill="#ffffff"></path><g id="SvgjsG1018"><text id="SvgjsText1019" font-family="微软雅黑" text-anchor="middle" font-size="13px" width="80px" fill="#323232" font-weight="400" align="middle" anchor="middle" family="微软雅黑" size="13px" weight="400" font-style="" opacity="1" y="9.05" transform="rotate(0)"><tspan id="SvgjsTspan1020" dy="16" x="50"><tspan id="SvgjsTspan1021" style="text-decoration:;">删除视频、番</tspan></tspan><tspan id="SvgjsTspan1022" dy="16" x="50"><tspan id="SvgjsTspan1023" style="text-decoration:;">剧、动态、专</tspan></tspan><tspan id="SvgjsTspan1024" dy="16" x="50"><tspan id="SvgjsTspan1025" style="text-decoration:;">栏操作</tspan></tspan></text></g></g><g id="SvgjsG1026"><path id="SvgjsPath1027" d="M132.5 181L266 181L266 178L399.5 178" stroke="#323232" stroke-width="2" fill="none" marker-end="url(#SvgjsMarker1028)"></path><rect id="SvgjsRect1030" width="221" height="16" x="155.5" y="171.5" fill="#ffffff"></rect><text id="SvgjsText1031" font-family="微软雅黑" text-anchor="middle" font-size="13px" width="221px" fill="#323232" font-weight="400" align="top" anchor="middle" family="微软雅黑" size="13px" weight="400" font-style="" opacity="1" y="169.55" transform="rotate(0)"><tspan id="SvgjsTspan1032" dy="16" x="266"><tspan id="SvgjsTspan1033" style="text-decoration:;">删除视频、番剧、动态、专栏操作信息</tspan></tspan></text></g><g id="SvgjsG1034" transform="translate(819.5,171)"><path id="SvgjsPath1035" d="M 0 0L 122 0L 0 0M 0 33L 122 33L 0 33Z" stroke="rgba(50,50,50,1)" stroke-width="2" fill-opacity="1" fill="#ffffff"></path><path id="SvgjsPath1036" d="M 0 0L 122 0L 122 33L 0 33L 0 0Z" stroke="none" fill="none"></path><g id="SvgjsG1037"><text id="SvgjsText1038" font-family="微软雅黑" text-anchor="middle" font-size="13px" width="102px" fill="#323232" font-weight="400" align="middle" anchor="middle" family="微软雅黑" size="13px" weight="400" font-style="" opacity="1" y="6.55" transform="rotate(0)"><tspan id="SvgjsTspan1039" dy="16" x="61"><tspan id="SvgjsTspan1040" style="text-decoration:;">番剧信息表</tspan></tspan></text></g></g><g id="SvgjsG1041" transform="translate(814.5,113)"><path id="SvgjsPath1042" d="M 0 0L 122 0L 0 0M 0 33L 122 33L 0 33Z" stroke="rgba(50,50,50,1)" stroke-width="2" fill-opacity="1" fill="#ffffff"></path><path id="SvgjsPath1043" d="M 0 0L 122 0L 122 33L 0 33L 0 0Z" stroke="none" fill="none"></path><g id="SvgjsG1044"><text id="SvgjsText1045" font-family="微软雅黑" text-anchor="middle" font-size="13px" width="102px" fill="#323232" font-weight="400" align="middle" anchor="middle" family="微软雅黑" size="13px" weight="400" font-style="" opacity="1" y="6.55" transform="rotate(0)"><tspan id="SvgjsTspan1046" dy="16" x="61"><tspan id="SvgjsTspan1047" style="text-decoration:;">视频信息表</tspan></tspan></text></g></g><g id="SvgjsG1048" transform="translate(898.5,231)"><path id="SvgjsPath1049" d="M 0 0L 122 0L 0 0M 0 33L 122 33L 0 33Z" stroke="rgba(50,50,50,1)" stroke-width="2" fill-opacity="1" fill="#ffffff"></path><path id="SvgjsPath1050" d="M 0 0L 122 0L 122 33L 0 33L 0 0Z" stroke="none" fill="none"></path><g id="SvgjsG1051"><text id="SvgjsText1052" font-family="微软雅黑" text-anchor="middle" font-size="13px" width="102px" fill="#323232" font-weight="400" align="middle" anchor="middle" family="微软雅黑" size="13px" weight="400" font-style="" opacity="1" y="6.55" transform="rotate(0)"><tspan id="SvgjsTspan1053" dy="16" x="61"><tspan id="SvgjsTspan1054" style="text-decoration:;">专栏信息表</tspan></tspan></text></g></g><g id="SvgjsG1055" transform="translate(819.5,290)"><path id="SvgjsPath1056" d="M 0 0L 122 0L 0 0M 0 33L 122 33L 0 33Z" stroke="rgba(50,50,50,1)" stroke-width="2" fill-opacity="1" fill="#ffffff"></path><path id="SvgjsPath1057" d="M 0 0L 122 0L 122 33L 0 33L 0 0Z" stroke="none" fill="none"></path><g id="SvgjsG1058"><text id="SvgjsText1059" font-family="微软雅黑" text-anchor="middle" font-size="13px" width="102px" fill="#323232" font-weight="400" align="middle" anchor="middle" family="微软雅黑" size="13px" weight="400" font-style="" opacity="1" y="6.55" transform="rotate(0)"><tspan id="SvgjsTspan1060" dy="16" x="61"><tspan id="SvgjsTspan1061" style="text-decoration:;">动态信息表</tspan></tspan></text></g></g><g id="SvgjsG1062" transform="translate(886.5,350)"><path id="SvgjsPath1063" d="M 0 0L 122 0L 0 0M 0 33L 122 33L 0 33Z" stroke="rgba(50,50,50,1)" stroke-width="2" fill-opacity="1" fill="#ffffff"></path><path id="SvgjsPath1064" d="M 0 0L 122 0L 122 33L 0 33L 0 0Z" stroke="none" fill="none"></path><g id="SvgjsG1065"><text id="SvgjsText1066" font-family="微软雅黑" text-anchor="middle" font-size="13px" width="102px" fill="#323232" font-weight="400" align="middle" anchor="middle" family="微软雅黑" size="13px" weight="400" font-style="" opacity="1" y="6.55" transform="rotate(0)"><tspan id="SvgjsTspan1067" dy="16" x="61"><tspan id="SvgjsTspan1068" style="text-decoration:;">评论信息表</tspan></tspan></text></g></g><g id="SvgjsG1069" transform="translate(321.5,354)"><path id="SvgjsPath1070" d="M 0 0L 122 0L 0 0M 0 33L 122 33L 0 33Z" stroke="rgba(50,50,50,1)" stroke-width="2" fill-opacity="1" fill="#ffffff"></path><path id="SvgjsPath1071" d="M 0 0L 122 0L 122 33L 0 33L 0 0Z" stroke="none" fill="none"></path><g id="SvgjsG1072"><text id="SvgjsText1073" font-family="微软雅黑" text-anchor="middle" font-size="13px" width="102px" fill="#323232" font-weight="400" align="middle" anchor="middle" family="微软雅黑" size="13px" weight="400" font-style="" opacity="1" y="6.55" transform="rotate(0)"><tspan id="SvgjsTspan1074" dy="16" x="61"><tspan id="SvgjsTspan1075" style="text-decoration:;">点赞信息表</tspan></tspan></text></g></g><g id="SvgjsG1076" transform="translate(265.5,25)"><path id="SvgjsPath1077" d="M 0 0L 122 0L 0 0M 0 33L 122 33L 0 33Z" stroke="rgba(50,50,50,1)" stroke-width="2" fill-opacity="1" fill="#ffffff"></path><path id="SvgjsPath1078" d="M 0 0L 122 0L 122 33L 0 33L 0 0Z" stroke="none" fill="none"></path><g id="SvgjsG1079"><text id="SvgjsText1080" font-family="微软雅黑" text-anchor="middle" font-size="13px" width="102px" fill="#323232" font-weight="400" align="middle" anchor="middle" family="微软雅黑" size="13px" weight="400" font-style="" opacity="1" y="6.55" transform="rotate(0)"><tspan id="SvgjsTspan1081" dy="16" x="61"><tspan id="SvgjsTspan1082" style="text-decoration:;">观看历史信息表</tspan></tspan></text></g></g><g id="SvgjsG1083" transform="translate(540.5,33)"><path id="SvgjsPath1084" d="M 0 0L 122 0L 0 0M 0 33L 122 33L 0 33Z" stroke="rgba(50,50,50,1)" stroke-width="2" fill-opacity="1" fill="#ffffff"></path><path id="SvgjsPath1085" d="M 0 0L 122 0L 122 33L 0 33L 0 0Z" stroke="none" fill="none"></path><g id="SvgjsG1086"><text id="SvgjsText1087" font-family="微软雅黑" text-anchor="middle" font-size="13px" width="102px" fill="#323232" font-weight="400" align="middle" anchor="middle" family="微软雅黑" size="13px" weight="400" font-style="" opacity="1" y="6.55" transform="rotate(0)"><tspan id="SvgjsTspan1088" dy="16" x="61"><tspan id="SvgjsTspan1089" style="text-decoration:;">收藏信息表</tspan></tspan></text></g></g><g id="SvgjsG1090"><path id="SvgjsPath1091" d="M498.90000915527344 169L656.9000091552734 169L656.9000091552734 119L814.9000091552734 119" stroke="#323232" stroke-width="2" fill="none" marker-end="url(#SvgjsMarker1092)"></path><rect id="SvgjsRect1094" width="78" height="16" x="617.9000091552734" y="136" fill="#ffffff"></rect><text id="SvgjsText1095" font-family="微软雅黑" text-anchor="middle" font-size="13px" width="78px" fill="#323232" font-weight="400" align="top" anchor="middle" family="微软雅黑" size="13px" weight="400" font-style="" opacity="1" y="134.05" transform="rotate(0)"><tspan id="SvgjsTspan1096" dy="16" x="656.9000091552734"><tspan id="SvgjsTspan1097" style="text-decoration:;">删除视频信息</tspan></tspan></text></g><g id="SvgjsG1098"><path id="SvgjsPath1099" d="M498.90000915527344 186L659.4000091552734 186L659.4000091552734 190L819.9000091552734 190" stroke="#323232" stroke-width="2" fill="none" marker-end="url(#SvgjsMarker1100)"></path><rect id="SvgjsRect1102" width="78" height="16" x="620.4000091552734" y="180" fill="#ffffff"></rect><text id="SvgjsText1103" font-family="微软雅黑" text-anchor="middle" font-size="13px" width="78px" fill="#323232" font-weight="400" align="top" anchor="middle" family="微软雅黑" size="13px" weight="400" font-style="" opacity="1" y="178.05" transform="rotate(0)"><tspan id="SvgjsTspan1104" dy="16" x="659.4000091552734"><tspan id="SvgjsTspan1105" style="text-decoration:;">删除番剧信息</tspan></tspan></text></g><g id="SvgjsG1106"><path id="SvgjsPath1107" d="M498.90000915527344 207L698.9000091552734 207L698.9000091552734 242L898.9000091552734 242" stroke="#323232" stroke-width="2" fill="none" marker-end="url(#SvgjsMarker1108)"></path><rect id="SvgjsRect1110" width="78" height="16" x="659.9000091552734" y="216.5" fill="#ffffff"></rect><text id="SvgjsText1111" font-family="微软雅黑" text-anchor="middle" font-size="13px" width="78px" fill="#323232" font-weight="400" align="top" anchor="middle" family="微软雅黑" size="13px" weight="400" font-style="" opacity="1" y="214.55" transform="rotate(0)"><tspan id="SvgjsTspan1112" dy="16" x="698.9000091552734"><tspan id="SvgjsTspan1113" style="text-decoration:;">删除专栏信息</tspan></tspan></text></g><g id="SvgjsG1114"><path id="SvgjsPath1115" d="M498.99370136823677 225.5773817382593L659.4468552617551 225.5773817382593L659.4468552617551 303L819.9000091552734 303" stroke="#323232" stroke-width="2" fill="none" marker-end="url(#SvgjsMarker1116)"></path><rect id="SvgjsRect1118" width="78" height="16" x="620.4468552617551" y="256.28869086912965" fill="#ffffff"></rect><text id="SvgjsText1119" font-family="微软雅黑" text-anchor="middle" font-size="13px" width="78px" fill="#323232" font-weight="400" align="top" anchor="middle" family="微软雅黑" size="13px" weight="400" font-style="" opacity="1" y="254.33869086912966" transform="rotate(0)"><tspan id="SvgjsTspan1120" dy="16" x="659.4468552617551"><tspan id="SvgjsTspan1121" style="text-decoration:;">删除动态信息</tspan></tspan></text></g><g id="SvgjsG1122"><path id="SvgjsPath1123" d="M489.8128534125258 229.00380530190824L489.8128534125258 364L886.9000091552734 364" stroke="#323232" stroke-width="2" fill="none" marker-end="url(#SvgjsMarker1124)"></path><rect id="SvgjsRect1126" width="247" height="16" x="497.3583339348538" y="356" fill="#ffffff"></rect><text id="SvgjsText1127" font-family="微软雅黑" text-anchor="middle" font-size="13px" width="247px" fill="#323232" font-weight="400" align="top" anchor="middle" family="微软雅黑" size="13px" weight="400" font-style="" opacity="1" y="354.05" transform="rotate(0)"><tspan id="SvgjsTspan1128" dy="16" x="620.8583339348538"><tspan id="SvgjsTspan1129" style="text-decoration:;">删除视频、番剧、动态、专栏内的评论信息</tspan></tspan></text></g><g id="SvgjsG1130"><path id="SvgjsPath1131" d="M449.5 161L449.5 109.5L326.5 109.5L326.5 58" stroke="#323232" stroke-width="2" fill="none" marker-end="url(#SvgjsMarker1132)"></path><rect id="SvgjsRect1134" width="130" height="16" x="323" y="101.5" fill="#ffffff"></rect><text id="SvgjsText1135" font-family="微软雅黑" text-anchor="middle" font-size="13px" width="130px" fill="#323232" font-weight="400" align="top" anchor="middle" family="微软雅黑" size="13px" weight="400" font-style="" opacity="1" y="99.55" transform="rotate(0)"><tspan id="SvgjsTspan1136" dy="16" x="388"><tspan id="SvgjsTspan1137" style="text-decoration:;">更新历史记录相关信息</tspan></tspan></text></g><g id="SvgjsG1138"><path id="SvgjsPath1139" d="M474.5 161L474.5 113.5L589.5 113.5L589.5 66" stroke="#323232" stroke-width="2" fill="none" marker-end="url(#SvgjsMarker1140)"></path><rect id="SvgjsRect1142" width="104" height="16" x="480" y="105.5" fill="#ffffff"></rect><text id="SvgjsText1143" font-family="微软雅黑" text-anchor="middle" font-size="13px" width="104px" fill="#323232" font-weight="400" align="top" anchor="middle" family="微软雅黑" size="13px" weight="400" font-style="" opacity="1" y="103.55" transform="rotate(0)"><tspan id="SvgjsTspan1144" dy="16" x="532"><tspan id="SvgjsTspan1145" style="text-decoration:;">更新收藏相关信息</tspan></tspan></text></g><g id="SvgjsG1146"><path id="SvgjsPath1147" d="M449.5 231L449.5 292.5L382.5 292.5L382.5 354" stroke="#323232" stroke-width="2" fill="none" marker-end="url(#SvgjsMarker1148)"></path><rect id="SvgjsRect1150" width="104" height="16" x="364" y="284.5" fill="#ffffff"></rect><text id="SvgjsText1151" font-family="微软雅黑" text-anchor="middle" font-size="13px" width="104px" fill="#323232" font-weight="400" align="top" anchor="middle" family="微软雅黑" size="13px" weight="400" font-style="" opacity="1" y="282.55" transform="rotate(0)"><tspan id="SvgjsTspan1152" dy="16" x="416"><tspan id="SvgjsTspan1153" style="text-decoration:;">更新点赞相关信息</tspan></tspan></text></g><g id="SvgjsG1154" transform="translate(399.5,498.4000015258789)"><path id="SvgjsPath1155" d="M 0 4Q 0 0 4 0L 96 0Q 100 0 100 4L 100 66Q 100 70 96 70L 4 70Q 0 70 0 66Z" stroke="rgba(50,50,50,1)" stroke-width="2" fill-opacity="1" fill="#ffffff"></path><g id="SvgjsG1156"><text id="SvgjsText1157" font-family="微软雅黑" text-anchor="middle" font-size="13px" width="80px" fill="#323232" font-weight="400" align="middle" anchor="middle" family="微软雅黑" size="13px" weight="400" font-style="" opacity="1" y="25.05" transform="rotate(0)"><tspan id="SvgjsTspan1158" dy="16" x="50"><tspan id="SvgjsTspan1159" style="text-decoration:;">删除评论操作</tspan></tspan></text></g></g><g id="SvgjsG1160"><path id="SvgjsPath1161" d="M52.5 215.4000015258789L52.5 533.4000015258789L399.5 533.4000015258789" stroke="#323232" stroke-width="2" fill="none" marker-end="url(#SvgjsMarker1162)"></path><rect id="SvgjsRect1164" width="104" height="16" x="15" y="525.4000015258789" fill="#ffffff"></rect><text id="SvgjsText1165" font-family="微软雅黑" text-anchor="middle" font-size="13px" width="104px" fill="#323232" font-weight="400" align="top" anchor="middle" family="微软雅黑" size="13px" weight="400" font-style="" opacity="1" y="523.4500015258789" transform="rotate(0)"><tspan id="SvgjsTspan1166" dy="16" x="67"><tspan id="SvgjsTspan1167" style="text-decoration:;">删除评论操作信息</tspan></tspan></text></g><g id="SvgjsG1168"><path id="SvgjsPath1169" d="M399.5 212.4000015258789L265.5340741737109 212.4000015258789L265.5340741737109 208.88236343567388L131.56814834742187 208.88236343567388" stroke="#323232" stroke-width="2" fill="none" marker-end="url(#SvgjsMarker1170)"></path><rect id="SvgjsRect1172" width="78" height="16" x="226.5340741737109" y="202.64118248077642" fill="#ffffff"></rect><text id="SvgjsText1173" font-family="微软雅黑" text-anchor="middle" font-size="13px" width="78px" fill="#323232" font-weight="400" align="top" anchor="middle" family="微软雅黑" size="13px" weight="400" font-style="" opacity="1" y="200.69118248077643" transform="rotate(0)"><tspan id="SvgjsTspan1174" dy="16" x="265.5340741737109"><tspan id="SvgjsTspan1175" style="text-decoration:;">删除结果反馈</tspan></tspan></text></g><g id="SvgjsG1176"><path id="SvgjsPath1177" d="M399.5 514.4000015258789L106.5 514.4000015258789L106.5 215.4000015258789" stroke="#323232" stroke-width="2" fill="none" marker-end="url(#SvgjsMarker1178)"></path><rect id="SvgjsRect1180" width="78" height="16" x="67.5" y="503.4000015258789" fill="#ffffff"></rect><text id="SvgjsText1181" font-family="微软雅黑" text-anchor="middle" font-size="13px" width="78px" fill="#323232" font-weight="400" align="top" anchor="middle" family="微软雅黑" size="13px" weight="400" font-style="" opacity="1" y="501.4500015258789" transform="rotate(0)"><tspan id="SvgjsTspan1182" dy="16" x="106.5"><tspan id="SvgjsTspan1183" style="text-decoration:;">删除结果反馈</tspan></tspan></text></g><g id="SvgjsG1184"><path id="SvgjsPath1185" d="M499.5 517.4000015258789L947.5 517.4000015258789L947.5 383" stroke="#323232" stroke-width="2" fill="none" marker-end="url(#SvgjsMarker1186)"></path><rect id="SvgjsRect1188" width="78" height="16" x="751.7000007629395" y="509.4000015258789" fill="#ffffff"></rect><text id="SvgjsText1189" font-family="微软雅黑" text-anchor="middle" font-size="13px" width="78px" fill="#323232" font-weight="400" align="top" anchor="middle" family="微软雅黑" size="13px" weight="400" font-style="" opacity="1" y="507.4500015258789" transform="rotate(0)"><tspan id="SvgjsTspan1190" dy="16" x="790.7000007629395"><tspan id="SvgjsTspan1191" style="text-decoration:;">删除评论信息</tspan></tspan></text></g><g id="SvgjsG1192"><path id="SvgjsPath1193" d="M449.5 498.4000015258789L449.5 442.70000076293945L382.5 442.70000076293945L382.5 387" stroke="#323232" stroke-width="2" fill="none" marker-end="url(#SvgjsMarker1194)"></path><rect id="SvgjsRect1196" width="104" height="16" x="364" y="434.70000076293945" fill="#ffffff"></rect><text id="SvgjsText1197" font-family="微软雅黑" text-anchor="middle" font-size="13px" width="104px" fill="#323232" font-weight="400" align="top" anchor="middle" family="微软雅黑" size="13px" weight="400" font-style="" opacity="1" y="432.75000076293946" transform="rotate(0)"><tspan id="SvgjsTspan1198" dy="16" x="416"><tspan id="SvgjsTspan1199" style="text-decoration:;">更新点赞相关信息</tspan></tspan></text></g></svg>