<svg width="1206" height="590" xmlns="http://www.w3.org/2000/svg" xmlns:xlink="http://www.w3.org/1999/xlink" overflow="hidden"><defs><clipPath id="clip0"><rect x="84" y="31" width="1206" height="590"/></clipPath></defs><g clip-path="url(#clip0)" transform="translate(-84 -31)"><rect x="84" y="291" width="199" height="44" fill="#454551"/><rect x="84" y="335" width="199" height="69" fill="#F2F2F2"/><text fill="#F4B3D7" font-family="Microsoft YaHei,Microsoft YaHei_MSFontService,sans-serif" font-weight="700" font-size="32" transform="translate(149.429 324)">用户<tspan fill="#454551" font-weight="400" x="-45.7817" y="57">网页浏览器</tspan></text><rect x="526" y="41" width="198" height="44" fill="#454551"/><rect x="526" y="85" width="198" height="70" fill="#F2F2F2"/><text fill="#F4B3D7" font-family="Microsoft YaHei,Microsoft YaHei_MSFontService,sans-serif" font-weight="700" font-size="32" transform="translate(543.03 74)">前端服务器<tspan fill="#454551" font-family="Segoe UI,Segoe UI_MSFontService,sans-serif" font-weight="400" x="33.1381" y="57">Vuetify</tspan></text><path d="M178.006 287.9 178.518 279.775 180.082 271.56 182.551 263.374 186.046 255.219 190.364 247.228 195.623 239.339 201.627 231.547 208.451 223.893 216.015 216.457 224.316 209.106 233.243 201.953 242.917 194.934 253.146 188.177 263.992 181.619 275.399 175.254 287.367 169.144 299.827 163.292 312.721 157.694 326.122 152.346 339.891 147.379 354.026 142.668 368.503 138.262 398.371 130.606 413.72 127.272 429.303 124.382 445.07 121.869 460.967 119.796 477.05 118.162 493.139 116.968 510.503 116.245 510.752 122.239 493.437 122.961 493.534 122.955 477.534 124.143 477.616 124.136 461.616 125.761 461.7 125.751 445.888 127.813 445.972 127.801 430.285 130.301 430.36 130.288 414.86 133.163 414.949 133.145 399.699 136.458 399.807 136.432 370.057 144.057 370.186 144.021 355.811 148.396 355.886 148.372 341.824 153.06 341.893 153.036 328.205 157.973 328.299 157.937 314.987 163.25 315.07 163.215 302.257 168.778 302.338 168.741 289.963 174.554 290.052 174.51 278.177 180.573 278.274 180.521 266.962 186.833 267.052 186.781 256.302 193.281 256.403 193.217 246.278 199.904 246.387 199.829 236.824 206.767 236.939 206.68 228.126 213.742 228.239 213.647 220.051 220.897 220.166 220.79 212.728 228.103 212.864 227.96 206.177 235.46 206.314 235.295 200.439 242.92 200.559 242.753 195.434 250.44 195.577 250.202 191.389 257.952 191.507 257.708 188.132 265.583 188.247 265.267 185.872 273.142 185.947 272.837 184.447 280.712 184.494 280.34 183.994 288.277ZM507.461 110.299 525.625 118.964 507.795 128.296Z" fill="#E33092"/><path d="M628.394 155.203 627.881 162.763 626.372 170.575 623.824 178.217 620.387 185.868 616.056 193.367 610.847 200.764 604.833 207.992 598.078 215.13 590.571 222.128 582.324 228.979 573.398 235.689 563.853 242.201 553.623 248.579 542.836 254.698 531.499 260.618 519.661 266.348 507.26 271.825 494.43 277.045 481.159 282.013 467.457 286.664 453.447 291.062 439.04 295.152 409.364 302.367 394.081 305.449 378.63 308.149 362.992 310.473 347.168 312.42 331.21 313.99 315.184 315.059 298.077 315.72 297.845 309.725 314.91 309.065 314.826 309.069 330.764 308.007 330.669 308.014 346.544 306.452 346.472 306.46 362.222 304.522 362.147 304.533 377.71 302.22 377.634 302.232 393.009 299.545 392.933 299.559 408.12 296.497 408.005 296.522 437.567 289.335 437.457 289.364 451.769 285.302 451.69 285.325 465.627 280.95 465.562 280.972 479.187 276.347 479.099 276.378 492.286 271.44 492.208 271.471 504.958 266.284 504.876 266.318 517.189 260.881 517.094 260.925 528.844 255.237 528.762 255.278 540.012 249.403 539.921 249.453 550.608 243.391 550.501 243.454 560.626 237.142 560.523 237.209 569.96 230.772 569.848 230.852 578.661 224.227 578.546 224.317 586.671 217.567 586.543 217.681 593.918 210.806 593.784 210.938 600.409 203.938 600.282 204.081 606.157 197.019 606.011 197.21 611.073 190.023 610.928 190.25 615.115 183 614.977 183.271 618.289 175.896 618.18 176.176 620.617 168.864 620.518 169.243 621.955 161.806 621.908 162.172 622.408 154.797ZM301.127 321.665 282.963 313 300.794 303.668Z" fill="#4EA6DC"/><rect x="500" y="494" width="198" height="44" fill="#454551"/><rect x="500" y="538" width="198" height="70" fill="#F2F2F2"/><text fill="#F4B3D7" font-family="Microsoft YaHei,Microsoft YaHei_MSFontService,sans-serif" font-weight="700" font-size="32" transform="translate(516.928 527)">后端服务器<tspan fill="#454551" font-family="Segoe UI,Segoe UI_MSFontService,sans-serif" font-weight="400" x="2.8847" y="57">SpringBoot</tspan></text><path d="M0.16641-2.99538 8.21738-2.5481 16.4219-1.11556 24.5867 1.21723 32.6582 4.38127 40.6386 8.37147 48.4686 13.1208 56.2012 18.6806 63.8484 24.9258 71.2946 31.8629 78.5914 39.4769 85.7505 47.713 92.7115 56.5725 99.4723 65.9871 106.041 75.9664 112.348 86.4986 118.458 97.4587 124.32 108.868 129.863 120.773 135.147 133.039 140.19 145.709 149.179 171.985 156.843 199.438 160.181 213.544 163.075 227.827 165.527 242.351 167.601 256.93 169.299 271.708 170.495 286.504 171.103 301.192 165.109 301.44 164.503 286.812 164.51 286.929 163.322 272.242 163.332 272.342 161.645 257.655 161.655 257.735 159.592 243.235 159.604 243.312 157.167 228.874 157.185 228.971 154.31 214.783 154.331 214.878 151.018 200.878 151.048 200.994 143.423 173.682 143.474 173.846 134.536 147.721 134.588 147.859 129.588 135.297 129.62 135.374 124.37 123.187 124.405 123.266 118.905 111.454 118.957 111.559 113.144 100.246 113.192 100.336 107.13 89.4608 107.176 89.5412 100.926 79.1037 100.994 79.2119 94.4941 69.3369 94.5632 69.4374 87.8757 60.1249 87.9535 60.2285 81.0785 51.4785 81.1733 51.5931 74.1108 43.4681 74.209 43.5757 67.0215 36.0757 67.1425 36.195 59.8301 29.3825 59.9774 29.5111 52.4774 23.3861 52.6237 23.4982 45.0612 18.0607 45.2567 18.19 37.6317 13.565 37.8459 13.6833 30.0959 9.80828 30.3426 9.91807 22.5301 6.85557 22.8008 6.94707 14.9258 4.69707 15.234 4.76779 7.359 3.39279 7.70859 3.43288-0.16641 2.99538ZM177.038 298.118 168.437 316.312 159.042 298.516Z" fill="#E33092" transform="matrix(1.83697e-16 1 1 -1.83697e-16 184 404)"/><rect x="956" y="290" width="199" height="43" fill="#454551"/><rect x="956" y="333" width="199" height="70" fill="#F2F2F2"/><text fill="#F4B3D7" font-family="Microsoft YaHei,Microsoft YaHei_MSFontService,sans-serif" font-weight="700" font-size="32" transform="translate(1005.29 323)">数据库<tspan fill="#454551" font-family="Segoe UI,Segoe UI_MSFontService,sans-serif" font-weight="400" x="0.0513306" y="56">MySQL</tspan></text><path d="M0.0447711-2.99967 16.8397-2.74899 33.6117-1.9952 50.3159-0.802045 66.9583 0.830794 83.4774 2.90354 99.8049 5.41547 115.941 8.3037 131.853 11.574 162.779 19.29 177.813 23.6303 192.453 28.3426 206.721 33.3083 220.551 38.6516 233.943 44.1843 246.845 50.0376 259.248 56.1446 271.092 62.5076 282.313 69.0637 292.919 75.8186 302.902 82.8323 312.196 89.9766 320.821 97.27 328.637 104.768 335.707 112.347 341.974 120.149 347.362 128.039 351.873 136.03 355.467 144.197 357.846 153.284 352.041 154.804 349.723 145.947 349.879 146.396 346.442 138.583 346.575 138.85 342.2 131.1 342.335 131.317 337.085 123.629 337.224 123.816 331.099 116.191 331.244 116.359 324.306 108.921 324.423 109.04 316.736 101.665 316.875 101.791 308.375 94.6033 308.484 94.691 299.297 87.6285 299.4 87.7048 289.525 80.7673 289.638 80.8429 279.138 74.1554 279.237 74.2153 268.112 67.7153 268.205 67.7678 256.455 61.4553 256.55 61.5039 244.237 55.4414 244.323 55.482 231.511 49.6695 231.604 49.7102 218.292 44.2102 218.356 44.2359 204.606 38.9234 204.701 38.9583 190.514 34.0208 190.581 34.0432 176.018 29.3557 176.105 29.3823 161.168 25.0698 161.274 25.0983 130.461 17.4108 130.584 17.4386 114.771 14.1886 114.846 14.2031 98.7839 11.3281 98.8563 11.3401 82.6063 8.84011 82.689 8.85166 66.2515 6.78916 66.3321 6.79816 49.7696 5.17316 49.8488 5.17988 33.2238 3.99238 33.3028 3.99697 16.6153 3.24697 16.7052 3.24967-0.0447711 2.99967ZM363.394 149.731 357.187 168.875 345.596 152.424Z" fill="#E33092" transform="matrix(1 0 0 -1 698 571.862)"/><path d="M0.108737-2.99803 12.2725-2.55686 24.4687-1.28642 36.4673 0.74509 48.1526 3.4759 59.4548 6.90465 70.3197 10.9075 80.5661 15.4897 90.1875 20.5872 99.0689 26.1461 107.084 32.1095 114.168 38.4208 120.275 45.0468 125.196 52.0029 128.914 59.2379 131.177 66.5616 131.799 70.3641 131.996 74.027 132.183 77.527 132.148 77.203 132.711 80.6405 132.616 80.2391 134.741 87.1141 134.543 86.6291 138.043 93.4416 137.816 93.0688 142.504 99.6313 142.278 99.3527 148.153 105.79 147.933 105.573 154.808 111.698 154.603 111.531 162.416 117.343 162.203 117.199 170.891 122.574 170.717 122.474 180.154 127.474 179.975 127.386 190.037 131.886 189.85 131.81 200.537 135.747 200.371 135.692 211.496 139.067 211.308 139.016 222.808 141.704 222.626 141.667 234.438 143.667 234.204 143.637 243.292 144.447 242.759 150.423 233.553 149.603 221.533 147.567 209.847 144.837 198.545 141.408 187.68 137.405 177.434 132.823 167.819 127.729 158.937 122.234 150.916 116.265 143.826 109.949 137.726 103.265 132.807 96.3781 129.086 89.1371 126.823 81.8134 126.201 78.0109 126.004 74.348 125.817 70.848 125.852 71.172 125.289 67.7345 125.384 68.1359 123.259 61.2609 123.457 61.7459 119.957 54.9334 120.176 55.2953 115.489 48.6703 115.731 48.9705 109.856 42.5955 110.067 42.8025 103.192 36.6775 103.397 36.8444 95.5843 31.0319 95.7834 31.168 87.0959 25.7305 87.283 25.8384 77.8455 20.8384 78.0253 20.9261 67.9628 16.4261 68.1504 16.5025 57.4629 12.565 57.6291 12.6208 46.5041 9.2458 46.6923 9.29629 35.1923 6.60879 35.3742 6.6454 23.5617 4.6454 23.7517 4.67135 11.7517 3.42136 11.9538 3.43553-0.108737 2.99803ZM240.557 138.275 258 148.312 239.504 156.244Z" fill="#4EA6DC" transform="matrix(-1 1.22465e-16 1.22465e-16 1 955.958 368)"/><path d="M499.97 518.634 489.671 518.191 479.376 516.976 469.213 514.931 459.322 512.187 449.743 508.802 440.611 504.779 431.922 500.243 423.79 495.185 416.286 489.669 409.46 483.744 403.511 477.472 398.371 470.901 394.241 464.017 391.134 456.944 389.196 449.662 388.548 442.533 387.923 435.658 388.012 436.158 386.199 429.345 386.352 429.78 383.414 423.093 383.589 423.43 379.651 416.867 379.861 417.172 374.923 410.86 375.121 411.088 369.308 405.025 369.509 405.216 362.946 399.528 363.134 399.679 355.822 394.304 356.014 394.434 348.077 389.496 348.273 389.608 339.773 385.171 339.959 385.26 330.959 381.322 331.156 381.4 321.843 378.088 322.047 378.152 312.359 375.465 312.569 375.515 302.632 373.515 302.943 373.561 297.651 373.064 298.212 367.09 303.661 367.602 313.859 369.654 323.753 372.399 333.266 375.783 342.458 379.804 351.15 384.342 359.282 389.4 366.785 394.915 373.543 400.773 379.556 407.044 384.701 413.622 388.831 420.506 391.938 427.579 393.876 434.861 394.524 441.99 395.149 448.865 395.06 448.365 396.873 455.178 396.72 454.742 399.658 461.43 399.484 461.093 403.421 467.655 403.212 467.351 408.149 473.663 407.963 473.447 413.713 479.509 413.503 479.308 420.128 485.058 419.938 484.907 427.25 490.282 427.058 490.152 434.996 495.089 434.799 494.977 443.299 499.415 443.121 499.329 452.058 503.266 451.848 503.183 461.223 506.495 461.026 506.433 470.713 509.121 470.503 509.07 480.44 511.07 480.2 511.032 490.263 512.22 490.04 512.202 500.227 512.639ZM300.246 379.277 282.974 368.949 301.599 361.328Z" fill="#4EA6DC"/><text fill="#1A4CC8" font-family="Calibri,Calibri_MSFontService,sans-serif" font-weight="700" font-size="43" transform="translate(1010.13 513)">M<tspan fill="#000000" font-family="DengXian,DengXian_MSFontService,sans-serif" font-size="32" x="57.5733" y="0">将现实概念抽</tspan><tspan fill="#000000" font-family="DengXian,DengXian_MSFontService,sans-serif" font-size="32" x="0" y="41">象为关系数据库中</tspan><tspan fill="#000000" font-family="DengXian,DengXian_MSFontService,sans-serif" font-size="32" x="0" y="79">的属性和关系</tspan><tspan x="-552.158" y="-109">C</tspan><tspan fill="#000000" font-family="DengXian,DengXian_MSFontService,sans-serif" font-size="32" x="-516.992" y="-109">负责接受</tspan><tspan fill="#000000" font-family="DengXian,DengXian_MSFontService,sans-serif" font-size="32" x="-388.992" y="-109">、</tspan><tspan fill="#000000" font-family="DengXian,DengXian_MSFontService,sans-serif" font-size="32" x="-356.992" y="-109">检查并处</tspan><tspan fill="#000000" font-family="DengXian,DengXian_MSFontService,sans-serif" font-size="32" x="-552.158" y="-68">理用户的请求</tspan><tspan fill="#000000" font-family="DengXian,DengXian_MSFontService,sans-serif" font-size="32" x="-358.038" y="-68">，</tspan><tspan fill="#000000" font-family="DengXian,DengXian_MSFontService,sans-serif" font-size="32" x="-325.685" y="-68">将与数</tspan><tspan fill="#000000" font-family="DengXian,DengXian_MSFontService,sans-serif" font-size="32" x="-552.158" y="-30">据库间的通信进行转发</tspan><tspan x="-269.542" y="-428">V</tspan><tspan fill="#000000" font-family="DengXian,DengXian_MSFontService,sans-serif" font-size="32" x="-234.375" y="-428">决定了用户以怎样的</tspan><tspan fill="#000000" font-family="DengXian,DengXian_MSFontService,sans-serif" font-size="32" x="-269.542" y="-377">形式看到数据</tspan></text><rect x="454" y="227" width="419" height="122" fill="#E33092"/><text fill="#FFFFFF" font-family="DengXian,DengXian_MSFontService,sans-serif" font-weight="700" font-size="32" transform="translate(535.756 260)">前后端分离的设计<tspan x="-32" y="38">降低了团队开发的难度</tspan><tspan x="-16" y="77">只需对接通信的接口</tspan></text></g></svg>